<?xml version="1.0" encoding="UTF-8" standalone="no"?><!-- Generator: Gravit.io --><svg xmlns="http://www.w3.org/2000/svg" xmlns:xlink="http://www.w3.org/1999/xlink" style="isolation:isolate" viewBox="601 326.245 786.452 1087.227" width="786.452pt" height="1087.227pt"><g style="opacity:0.19;"><g><g><g><path d=" M 1036.077 400.108 C 1036.077 400.108 1036.71 374.279 1022.935 356.536 C 1010.759 340.852 983.975 333 983.975 333 C 983.975 333 961.592 336.134 947.461 343.382 C 933.781 350.398 928.339 361.536 928.339 361.536 L 909.032 417.299 C 905.308 417.76 904.142 419.852 904.142 419.852 L 895.715 455.155 C 895.715 455.155 905.238 470.373 916.379 479.468 C 925.826 487.177 938.351 490.179 938.351 490.179 C 938.351 490.179 954.531 496.473 969.571 497.26 C 984.941 498.065 999.291 493.081 999.291 493.081 L 1011.779 464.373 L 1009.732 461.489 L 1036.077 400.108 Z " fill="rgb(199,199,199)"/></g></g></g><g><g><g><path d=" M 1036.077 400.108 C 1036.077 400.108 1036.71 374.279 1022.935 356.536 C 1010.759 340.852 983.975 333 983.975 333 C 983.975 333 975.048 337.756 963.885 362.911 C 952.724 388.066 939.963 418.755 939.963 418.755 C 937.996 418.998 954.721 425.061 967.811 432.095 C 979.504 438.377 989.901 446.586 989.901 446.586 C 989.901 446.586 964.462 434.258 962.175 436.906 C 962.207 436.895 950.418 468.613 950.507 468.938 C 949.563 474.053 971.3 482.851 971.3 482.851 C 971.3 482.851 983.808 486.511 992.718 488.371 C 997.596 489.388 1001.453 489.139 1001.453 489.139 L 1011.777 464.374 L 1009.73 461.489 L 1036.077 400.108 Z " fill="rgb(153,153,152)"/></g></g></g><g><g><g><path d=" M 917.674 457.275 C 902.779 448.566 895.713 455.153 895.713 455.153 C 895.713 455.153 905.237 470.372 916.378 479.466 C 925.824 487.176 938.349 490.177 938.349 490.177 C 938.349 490.177 954.529 496.471 969.569 497.259 C 984.938 498.063 999.288 493.079 999.288 493.079 L 1001.654 488.82 C 1001.654 488.82 989.12 487.614 976.24 484.087 C 967.784 481.77 937.589 468.92 917.674 457.275 Z  M 943.386 422.789 C 972.259 436.022 1011.531 464.378 1011.531 464.378 C 1011.531 464.378 997.477 451.153 979.923 439.794 C 962.349 428.42 943.275 419.487 937.405 417.365 C 931.533 415.244 927.798 415.016 919.504 414.572 C 911.678 414.151 909.009 417.177 909.009 417.177 C 909.009 417.177 922.413 413.177 943.386 422.789 Z " fill="rgb(70,70,70)"/></g></g></g><g><g><g><path d=" M 969.468 354.026 C 957.26 349.939 942.788 360.29 937.145 377.146 C 931.502 394.001 936.825 410.98 949.032 415.066 C 961.24 419.153 975.709 408.801 981.352 391.946 C 986.995 375.09 981.675 358.113 969.468 354.026 Z " fill="rgb(27,28,24)"/></g></g></g><g><g><g><path d=" M 963.231 360.887 C 954.768 358.054 944.749 365.188 940.854 376.824 C 936.959 388.459 940.662 400.186 949.126 403.02 C 957.589 405.853 967.607 398.718 971.502 387.084 C 975.397 375.45 971.692 363.72 963.231 360.887 Z " fill="rgb(255,255,255)"/></g></g></g></g><g style="opacity:0.19;"><g><g><g><path d=" M 815.853 354.868 C 815.853 354.868 797.718 336.465 775.387 334.042 C 755.647 331.9 731.39 345.705 731.39 345.705 C 731.39 345.705 718.091 363.98 713.484 379.178 C 709.023 393.891 713.251 405.544 713.251 405.544 L 739.937 458.176 C 737.68 461.175 738.375 463.467 738.375 463.467 L 757.907 494.058 C 757.907 494.058 775.468 497.784 789.75 496.091 C 801.858 494.655 812.72 487.734 812.72 487.734 C 812.72 487.734 828.49 480.471 839.507 470.202 C 850.766 459.709 857.152 445.926 857.152 445.926 L 845.185 416.996 L 841.688 416.465 L 815.853 354.868 Z " fill="rgb(199,199,199)"/></g></g></g><g><g><g><path d=" M 815.853 354.868 C 815.853 354.868 797.718 336.465 775.387 334.042 C 755.647 331.9 731.39 345.705 731.39 345.705 C 731.39 345.705 728.607 355.43 738.94 380.936 C 749.275 406.443 762.477 436.944 762.477 436.944 C 761.285 438.527 777.267 430.713 791.421 426.187 C 804.063 422.143 817.192 420.371 817.192 420.371 C 817.192 420.371 790.649 430.099 790.965 433.583 C 790.979 433.552 805.597 464.07 805.892 464.232 C 808.914 468.465 830.346 458.946 830.346 458.946 C 830.346 458.946 841.67 452.495 849.198 447.38 C 853.319 444.578 855.82 441.632 855.82 441.632 L 845.184 416.999 L 841.687 416.466 L 815.853 354.868 Z " fill="rgb(153,153,152)"/></g></g></g><g><g><g><path d=" M 774.69 479.74 C 758.077 484.4 757.905 494.058 757.905 494.058 C 757.905 494.058 775.466 497.784 789.748 496.091 C 801.856 494.655 812.718 487.734 812.718 487.734 C 812.718 487.734 828.487 480.472 839.504 470.203 C 850.763 459.709 857.149 445.926 857.149 445.926 L 855.73 441.266 C 855.73 441.266 846.154 449.442 834.667 456.253 C 827.125 460.724 796.903 473.51 774.69 479.74 Z  M 767.756 437.286 C 797.336 425.717 845.016 417.179 845.016 417.179 C 845.016 417.179 825.741 418.096 805.374 422.827 C 784.982 427.561 765.305 435.071 759.7 437.818 C 754.094 440.567 751.335 443.095 745.252 448.75 C 739.512 454.086 739.833 458.107 739.833 458.107 C 739.833 458.107 746.271 445.689 767.756 437.286 Z " fill="rgb(70,70,70)"/></g></g></g><g><g><g><path d=" M 736.429 370.748 C 725.008 376.687 722.395 394.288 730.596 410.058 C 738.796 425.828 754.705 433.798 766.126 427.859 C 777.547 421.92 780.158 404.321 771.957 388.551 C 763.757 372.78 747.851 364.809 736.429 370.748 Z " fill="rgb(27,28,24)"/></g></g></g><g><g><g><path d=" M 737.03 380.001 C 729.111 384.118 727.281 396.281 732.942 407.167 C 738.602 418.053 749.609 423.539 757.528 419.421 C 765.446 415.304 767.277 403.141 761.617 392.256 C 755.956 381.371 744.946 375.884 737.03 380.001 Z " fill="rgb(255,255,255)"/></g></g></g></g><g><g><g><ellipse vector-effect="non-scaling-stroke" cx="994.1643168068978" cy="1387.523023912409" rx="374.457" ry="25.94900000000007" fill="rgb(73,73,73)"/></g></g></g><g><g><g><path d=" M 1378.599 939.1 C 1378.556 938.954 1378.423 938.563 1378.163 937.842 C 1377.642 936.404 1376.622 933.628 1374.808 928.845 C 1367.658 909.17 1327.294 865.45 1310.794 851.209 C 1318.351 853.427 1320.085 854.056 1330.384 857.584 C 1340.693 861.054 1335.595 861.624 1350.876 856.84 C 1360.776 853.791 1377.544 843.226 1377.562 843.122 C 1377.574 843.075 1373.814 825.633 1346.33 804.79 C 1318.908 783.563 1325.553 758.284 1311.207 752.436 C 1307.66 750.737 1293.102 747.924 1273.57 741.78 C 1254.017 735.765 1229.5 726.42 1205.504 714.728 C 1181.483 703.171 1157.984 689.272 1139.957 677.233 C 1121.902 665.327 1109.316 655.28 1106.59 654.507 C 1101.34 651.766 1080.176 636.16 1059.371 618.771 C 1038.535 601.565 1018.057 582.575 1013.457 577.272 C 1004.293 566.453 994.727 562.583 988.019 560.892 C 981.275 559.415 887.109 518.027 885.298 516.981 C 883.497 515.881 871.052 545.904 871.075 545.776 C 871.079 545.756 870.718 669.089 880.568 689.703 C 885.55 699.687 913.9 737.077 943.668 771.876 C 973.363 807.079 1004.477 839.691 1013.383 849.439 C 1022.135 860.089 1047.653 905.543 1071.481 945.432 C 1095.225 985.803 1117.28 1020.612 1117.196 1021.09 C 1117.132 1021.478 1162.997 1089.718 1193.944 1143.81 C 1211.807 1174.967 1222.905 1201.83 1222.909 1201.812 C 1222.911 1201.801 1226.839 1211.644 1229.938 1217.633 C 1231.624 1220.876 1233.428 1221.892 1233.428 1221.89 C 1233.432 1221.863 1235.149 1205.174 1239.33 1195.262 C 1250.293 1169.158 1271.424 1130.01 1271.428 1129.986 C 1271.428 1129.992 1281.633 1123.805 1288.137 1108.848 C 1293.727 1095.994 1295.737 1074.744 1295.471 1069.883 C 1294.912 1059.279 1295.467 1025.395 1297.035 1015.718 C 1297.828 1010.829 1307.715 1000.89 1319.109 989.699 C 1330.492 978.607 1343.38 966.265 1349.791 958.879 C 1362.566 944.321 1376.742 934.536 1376.74 934.537 C 1376.742 934.536 1378.064 937.921 1378.484 938.905 C 1378.541 939.026 1378.578 939.112 1378.595 939.146 C 1378.605 939.166 1378.611 939.169 1378.611 939.164 C 1378.611 939.159 1378.611 939.136 1378.599 939.1 Z " fill="rgb(193,193,193)"/></g></g></g><g><g><g><linearGradient id="_lgradient_1" x1="-0.000002875931322199321" y1="0.49999903873045437" x2="1.000001579866985" y2="0.49999903873045437" gradientTransform="matrix(506.372,0,0,704.143,871.081,517.748)" gradientUnits="userSpaceOnUse"><stop offset="0%" stop-opacity="1" style="stop-color:rgb(65,65,65)"/><stop offset="100%" stop-opacity="1" style="stop-color:rgb(0,0,0)"/></linearGradient><mask id="_mask_qpbvGhqj19ZyymMM8Xk8kSIN64nCkJwn" x="-200%" y="-200%" width="400%" height="400%"><rect x="-200%" y="-200%" width="400%" height="400%" style="fill:white;"/><path d=" M 1316.416 902.921 C 1308.318 890.4 1319.826 875.797 1333.266 867.424 C 1346.68 859.256 1362.266 852.517 1362.223 850.846 C 1361.86 832.875 1324.264 832.012 1324.282 831.699 C 1324.294 831.834 1279.891 823.562 1248.204 809.056 C 1222.016 797.795 1193.868 783.01 1166.833 764.319 C 1139.767 745.831 1113.813 723.434 1091.312 701.666 C 1068.802 679.937 1049.744 658.829 1036.23 643.888 C 1022.73 628.826 1014.785 619.931 1014.781 619.841 C 1014.562 620.584 920.148 534.569 885.515 517.79 C 884.617 517.122 880.954 524.569 877.577 531.687 C 874.188 538.886 871.083 545.758 871.081 545.777 C 871.085 545.747 870.746 668.814 880.438 692.949 C 885.35 704.387 913.297 752.098 943.221 792.952 C 972.996 834.836 1004.75 869.856 1013.832 879.732 C 1018.353 884.802 1027.041 899.324 1037.709 916.267 C 1048.363 933.337 1061 952.831 1073.129 970.725 C 1097.42 1006.496 1119.492 1036.412 1119.457 1036.698 C 1119.451 1037.268 1165.545 1094.615 1195.482 1145.642 C 1212.841 1174.847 1223.328 1201.798 1223.339 1201.75 C 1223.341 1201.732 1227.058 1211.542 1230.028 1217.593 C 1231.639 1220.864 1233.423 1221.893 1233.423 1221.891 C 1233.427 1221.841 1235.513 1205.019 1239.948 1195.171 C 1251.526 1169.171 1274.044 1130.598 1274.075 1130.499 C 1274.075 1130.506 1284.573 1124.158 1291.669 1109.197 C 1297.806 1096.198 1255.124 1090.259 1254.958 1085.794 C 1254.806 1080.856 1266.397 1067.347 1278.45 1052.704 C 1290.473 1038.243 1302.958 1022.652 1303.932 1017.734 C 1304.911 1012.778 1321.211 997.194 1339.327 977.653 C 1357.389 958.552 1370.563 941.864 1377.452 932.138 C 1374.759 924.755 1329.545 923.584 1316.416 902.921 Z " fill="black" stroke="none"/></mask><path d=" M 1316.416 902.921 C 1308.318 890.4 1319.826 875.797 1333.266 867.424 C 1346.68 859.256 1362.266 852.517 1362.223 850.846 C 1361.86 832.875 1324.264 832.012 1324.282 831.699 C 1324.294 831.834 1279.891 823.562 1248.204 809.056 C 1222.016 797.795 1193.868 783.01 1166.833 764.319 C 1139.767 745.831 1113.813 723.434 1091.312 701.666 C 1068.802 679.937 1049.744 658.829 1036.23 643.888 C 1022.73 628.826 1014.785 619.931 1014.781 619.841 C 1014.562 620.584 920.148 534.569 885.515 517.79 C 884.617 517.122 880.954 524.569 877.577 531.687 C 874.188 538.886 871.083 545.758 871.081 545.777 C 871.085 545.747 870.746 668.814 880.438 692.949 C 885.35 704.387 913.297 752.098 943.221 792.952 C 972.996 834.836 1004.75 869.856 1013.832 879.732 C 1018.353 884.802 1027.041 899.324 1037.709 916.267 C 1048.363 933.337 1061 952.831 1073.129 970.725 C 1097.42 1006.496 1119.492 1036.412 1119.457 1036.698 C 1119.451 1037.268 1165.545 1094.615 1195.482 1145.642 C 1212.841 1174.847 1223.328 1201.798 1223.339 1201.75 C 1223.341 1201.732 1227.058 1211.542 1230.028 1217.593 C 1231.639 1220.864 1233.423 1221.893 1233.423 1221.891 C 1233.427 1221.841 1235.513 1205.019 1239.948 1195.171 C 1251.526 1169.171 1274.044 1130.598 1274.075 1130.499 C 1274.075 1130.506 1284.573 1124.158 1291.669 1109.197 C 1297.806 1096.198 1255.124 1090.259 1254.958 1085.794 C 1254.806 1080.856 1266.397 1067.347 1278.45 1052.704 C 1290.473 1038.243 1302.958 1022.652 1303.932 1017.734 C 1304.911 1012.778 1321.211 997.194 1339.327 977.653 C 1357.389 958.552 1370.563 941.864 1377.452 932.138 C 1374.759 924.755 1329.545 923.584 1316.416 902.921 Z " fill="url(#_lgradient_1)" mask="url(#_mask_qpbvGhqj19ZyymMM8Xk8kSIN64nCkJwn)" vector-effect="non-scaling-stroke" stroke-width="2" stroke="rgb(0,0,0)" stroke-linejoin="miter" stroke-linecap="butt" stroke-miterlimit="10"/><path d=" M 1316.416 902.921 C 1308.318 890.4 1319.826 875.797 1333.266 867.424 C 1346.68 859.256 1362.266 852.517 1362.223 850.846 C 1361.86 832.875 1324.264 832.012 1324.282 831.699 C 1324.294 831.834 1279.891 823.562 1248.204 809.056 C 1222.016 797.795 1193.868 783.01 1166.833 764.319 C 1139.767 745.831 1113.813 723.434 1091.312 701.666 C 1068.802 679.937 1049.744 658.829 1036.23 643.888 C 1022.73 628.826 1014.785 619.931 1014.781 619.841 C 1014.562 620.584 920.148 534.569 885.515 517.79 C 884.617 517.122 880.954 524.569 877.577 531.687 C 874.188 538.886 871.083 545.758 871.081 545.777 C 871.085 545.747 870.746 668.814 880.438 692.949 C 885.35 704.387 913.297 752.098 943.221 792.952 C 972.996 834.836 1004.75 869.856 1013.832 879.732 C 1018.353 884.802 1027.041 899.324 1037.709 916.267 C 1048.363 933.337 1061 952.831 1073.129 970.725 C 1097.42 1006.496 1119.492 1036.412 1119.457 1036.698 C 1119.451 1037.268 1165.545 1094.615 1195.482 1145.642 C 1212.841 1174.847 1223.328 1201.798 1223.339 1201.75 C 1223.341 1201.732 1227.058 1211.542 1230.028 1217.593 C 1231.639 1220.864 1233.423 1221.893 1233.423 1221.891 C 1233.427 1221.841 1235.513 1205.019 1239.948 1195.171 C 1251.526 1169.171 1274.044 1130.598 1274.075 1130.499 C 1274.075 1130.506 1284.573 1124.158 1291.669 1109.197 C 1297.806 1096.198 1255.124 1090.259 1254.958 1085.794 C 1254.806 1080.856 1266.397 1067.347 1278.45 1052.704 C 1290.473 1038.243 1302.958 1022.652 1303.932 1017.734 C 1304.911 1012.778 1321.211 997.194 1339.327 977.653 C 1357.389 958.552 1370.563 941.864 1377.452 932.138 C 1374.759 924.755 1329.545 923.584 1316.416 902.921 Z " fill="url(#_lgradient_1)"/></g></g></g><g><g><g><path d=" M 749.919 538.678 C 749.919 538.678 702.22 623.244 679.217 699.447 C 658.964 766.538 653.294 831.249 653.294 831.249 C 653.294 831.249 661.235 834.765 668.582 835.049 C 675.417 835.313 682.851 833.261 682.851 833.261 C 682.851 833.261 688.518 768.952 711.089 699.257 C 733.66 629.561 778.186 548.659 778.186 548.659 L 771.233 539.952 L 749.919 538.678 Z  M 1029.062 702.506 C 1016.996 623.83 981.65 533.402 981.65 533.402 L 960.371 531.668 L 952.264 539.311 C 952.264 539.311 984.981 625.666 997.535 697.842 C 1010.089 770.018 1006.666 834.486 1006.666 834.486 C 1006.666 834.486 1013.738 837.56 1020.543 838.259 C 1027.854 839.01 1036.213 836.644 1036.213 836.644 C 1036.213 836.644 1039.689 771.778 1029.062 702.506 Z  M 887.226 732.542 L 884.527 720.933 C 884.527 720.933 861.307 706.894 860.227 707.704 C 859.147 708.514 850.507 723.903 850.507 723.903 L 853.207 786.267 C 853.207 786.267 862.071 798.064 872.335 799.303 C 882.177 800.491 893.437 791.127 893.437 791.127 C 893.437 791.127 889.933 773.895 888.242 757.926 C 886.861 744.904 887.226 732.542 887.226 732.542 Z  M 884.535 485.593 C 884.535 485.593 878.34 480.983 863.549 481.012 C 848.757 481.043 843.314 486.241 843.314 486.241 L 842.344 511.459 L 846.87 514.207 L 884.21 509.842 L 884.535 485.593 Z " fill="rgb(27,28,24)"/></g></g></g><g><g><g><path d=" M 906.185 556.163 L 924.247 538.824 L 925.45 517.873 L 881.138 507.277 L 817.324 513.538 L 867.413 556.404 L 906.185 556.163 Z  M 869.903 775.915 L 822.615 779.31 C 822.615 779.31 851.229 814.474 851.958 815.446 C 852.686 816.416 901.429 812.05 901.429 812.05 L 926.409 793.134 L 932.225 778.341 L 869.903 775.915 Z " fill="rgb(0,0,0)"/></g></g></g><g><g><g><path d=" M 1013.562 1220.525 C 1008.455 1202.085 1005.962 1195.605 1001.248 1178.699 C 999.615 1172.843 991.924 1146.264 990.791 1139.234 C 983.965 1105.671 996.471 1049.773 996.428 1047.304 C 995.762 1040.348 988.592 1032.688 980.426 970.282 C 977.072 944.633 969.584 900.641 962.291 869.675 C 954.945 838.475 948.566 825.154 945.275 820.894 C 941.984 816.635 937.021 815.93 937.021 815.93 L 914.154 830.351 C 914.154 830.351 918.613 887.925 930.236 945.367 C 941.179 999.443 959.328 1053.588 959.328 1053.588 L 963.801 1067.976 C 963.801 1067.976 960.768 1077.428 958.998 1089.072 C 955.795 1110.132 952.955 1139.297 952.955 1139.297 C 952.955 1139.297 951.851 1153.281 953.553 1167.676 C 955.957 1188.009 959.078 1195.864 968.463 1211.996 C 980.68 1232.998 991.902 1301.368 1005.486 1362.591 C 1015.232 1362.909 1030.41 1355.275 1030.41 1355.275 C 1030.41 1355.275 1060.047 1337.33 1059.713 1327.963 C 1041.09 1281.384 1018.672 1238.965 1013.562 1220.525 Z " fill="rgb(0,0,0)"/></g></g></g><g><g><g><path d=" M 921.959 873.303 C 923.781 872.365 930.75 864.188 939.666 860.41 C 948.107 856.833 954.691 857.105 956.908 856.704 C 959.123 856.303 960.162 851.517 956.224 851.157 C 953.675 850.923 945.247 851.618 935.98 855.89 C 927.986 859.578 921.462 865.172 919.423 867.559 C 916.873 870.549 920.136 874.241 921.959 873.303 Z  M 936.392 842.032 C 944.833 838.455 947.82 838.968 950.035 838.566 C 952.25 838.164 953.287 833.379 949.351 833.017 C 946.802 832.785 941.974 833.24 932.706 837.512 C 924.712 841.2 918.186 846.794 916.147 849.181 C 913.594 852.168 916.858 855.862 918.68 854.922 C 920.507 853.986 927.476 845.81 936.392 842.032 Z  M 943.595 879.574 C 952.036 875.997 958.62 876.267 960.835 875.868 C 963.05 875.467 964.089 870.681 960.153 870.321 C 957.602 870.087 949.174 870.782 939.909 875.053 C 931.915 878.741 923.952 885.778 921.913 888.162 C 919.36 891.149 922.624 894.842 924.446 893.903 C 926.269 892.969 934.679 883.352 943.595 879.574 Z  M 947.287 898.715 C 955.726 895.139 962.312 895.41 964.529 895.009 C 966.744 894.61 967.781 889.824 963.843 889.462 C 961.296 889.228 952.868 889.923 943.601 894.196 C 935.607 897.883 926.923 905.636 924.884 908.026 C 922.331 911.011 925.595 914.705 927.417 913.765 C 929.242 912.829 938.371 902.492 947.287 898.715 Z  M 971.394 930.832 C 973.609 930.431 974.646 925.646 970.71 925.286 C 968.161 925.052 959.731 925.746 950.466 930.018 C 942.472 933.706 933.55 941.941 931.509 944.33 C 928.958 947.316 932.222 951.009 934.044 950.07 C 935.866 949.131 945.232 938.315 954.149 934.538 C 962.593 930.962 969.179 931.234 971.394 930.832 Z  M 968.121 912.454 C 970.336 912.053 971.375 907.267 967.437 906.908 C 964.888 906.674 956.46 907.368 947.193 911.64 C 939.201 915.328 930.037 923.563 927.998 925.951 C 925.445 928.938 928.709 932.631 930.531 931.693 C 932.353 930.755 941.963 919.936 950.881 916.16 C 959.32 912.584 965.906 912.856 968.121 912.454 Z  M 975.324 949.996 C 977.539 949.595 978.578 944.809 974.64 944.449 C 972.091 944.216 963.663 944.91 954.396 949.181 C 946.404 952.869 937.72 960.383 935.679 962.773 C 933.128 965.758 936.392 969.453 938.214 968.512 C 940.036 967.574 949.165 957.479 958.081 953.7 C 966.523 950.126 973.109 950.397 975.324 949.996 Z  M 979.013 969.137 C 981.228 968.739 982.267 963.952 978.331 963.591 C 975.782 963.359 967.351 964.051 958.087 968.325 C 950.093 972.012 942.13 978.804 940.091 981.194 C 937.538 984.179 940.802 987.874 942.624 986.933 C 944.446 985.995 952.853 976.621 961.769 972.84 C 970.215 969.267 976.799 969.539 979.013 969.137 Z  M 984.547 1006.518 C 986.762 1006.119 987.799 1001.333 983.863 1000.971 C 981.314 1000.739 972.886 1001.432 963.619 1005.705 C 955.625 1009.392 951.264 1012.827 949.223 1015.215 C 946.672 1018.202 949.936 1021.895 951.758 1020.956 C 953.578 1020.018 958.389 1014.001 967.305 1010.224 C 975.746 1006.647 982.332 1006.919 984.547 1006.518 Z  M 981.271 988.14 C 983.488 987.741 984.525 982.955 980.587 982.593 C 978.04 982.361 969.612 983.054 960.345 987.327 C 952.351 991.014 945.827 996.609 943.788 998.997 C 941.233 1001.984 944.499 1005.676 946.321 1004.738 C 948.141 1003.8 955.114 995.623 964.03 991.843 C 972.47 988.269 979.056 988.541 981.271 988.14 Z  M 954.351 1033.419 C 951.8 1036.406 955.064 1040.098 956.886 1039.16 C 958.706 1038.222 962.318 1033.165 971.234 1029.387 C 979.673 1025.811 986.259 1026.083 988.474 1025.682 C 990.689 1025.283 991.728 1020.497 987.792 1020.135 C 985.243 1019.903 976.812 1020.596 967.548 1024.869 C 959.554 1028.556 956.392 1031.031 954.351 1033.419 Z  M 971.24 1044.01 C 963.246 1047.698 962.238 1048.552 960.197 1050.94 C 957.644 1053.927 960.676 1057.321 962.498 1056.381 C 964.32 1055.443 966.01 1052.306 974.926 1048.528 C 983.367 1044.952 989.951 1045.221 992.166 1044.822 C 994.381 1044.421 995.42 1039.635 991.482 1039.275 C 988.935 1039.041 980.507 1039.736 971.24 1044.01 Z  M 953.256 1137.264 C 956.793 1134.586 961.895 1131.144 967.955 1129.208 C 977.598 1126.104 984.094 1126.336 986.627 1125.951 C 989.18 1125.575 990.277 1121.549 985.764 1121.293 C 982.869 1121.149 974.272 1121.673 963.869 1125.381 C 960.101 1126.72 956.719 1128.414 953.906 1130.096 L 953.256 1137.264 Z  M 983.92 1110.672 C 986.422 1110.33 987.547 1106.43 983.147 1106.143 C 982.793 1106.121 982.335 1106.108 981.784 1106.111 C 981.229 1106.114 980.591 1106.132 979.868 1106.171 C 978.423 1106.247 976.657 1106.401 974.665 1106.67 C 970.679 1107.208 965.784 1108.195 960.788 1109.999 C 959.063 1110.611 957.431 1111.303 955.895 1112.035 L 955.209 1118.178 C 957.926 1116.478 961.104 1114.831 964.617 1113.718 C 973.933 1110.73 981.435 1111.022 983.92 1110.672 Z  M 957.097 1154.161 C 959.212 1152.441 962.023 1149.273 972.511 1145.858 C 982.435 1142.599 985.945 1143.225 988.509 1142.796 C 991.091 1142.375 992.148 1138.21 987.558 1138.003 C 984.615 1137.893 978.947 1138.064 968.183 1141.923 C 958.9 1145.252 956.589 1146.758 954.413 1149.07 C 949.746 1153.952 954.982 1155.88 957.097 1154.161 Z  M 977.244 1162.994 C 987.369 1159.556 990.473 1160.077 993.055 1159.598 C 995.655 1159.127 996.66 1154.819 992.03 1154.667 C 989.055 1154.593 983.757 1154.915 972.719 1158.964 C 963.209 1162.458 957.047 1167.005 954.799 1169.386 C 951.965 1172.342 955.643 1175.633 957.735 1174.647 L 956.538 1175.606 C 958.586 1174.582 966.543 1166.604 977.244 1162.994 Z  M 1001.957 1192.556 C 1004.555 1191.99 1005.449 1187.383 1000.779 1187.35 C 997.783 1187.349 993.613 1187.754 982.279 1192.237 C 972.521 1196.107 967.334 1199.285 965.371 1202.112 C 962.68 1205.932 966.279 1209.006 969.978 1205.785 C 973.679 1202.561 976.169 1200.464 987.083 1196.427 C 997.41 1192.578 999.365 1193.127 1001.957 1192.556 Z  M 997.187 1175.305 C 999.785 1174.785 1000.74 1170.333 996.087 1170.244 C 993.103 1170.207 988.72 1170.686 977.505 1174.932 C 967.849 1178.599 961.187 1183.132 958.888 1185.58 C 955.179 1189.468 959.765 1193.097 961.617 1191.408 C 963.467 1189.719 971.351 1182.846 982.181 1179.04 C 992.431 1175.415 994.601 1175.829 997.187 1175.305 Z  M 1007.595 1210.996 C 1010.191 1210.377 1011.009 1205.605 1006.333 1205.633 C 1003.327 1205.67 999.644 1206.016 988.243 1210.763 C 978.431 1214.866 976.149 1216.409 973.792 1219.026 C 970.815 1222.282 975.112 1226.088 978.001 1223.498 C 980.892 1220.908 981.507 1219.088 993.165 1215.035 C 1003.527 1210.944 1005.006 1211.618 1007.595 1210.996 Z  M 1013.033 1229.979 C 1015.635 1229.316 1016.377 1224.374 1011.676 1224.451 C 1008.655 1224.514 1005.68 1224.788 994.254 1229.813 C 987.924 1232.61 982.416 1236.241 978.664 1239.198 L 980.605 1246.916 C 984.367 1243.615 991.054 1237.587 999.277 1234.168 C 1009.646 1229.828 1010.431 1230.645 1013.033 1229.979 Z  M 1031.275 1267.311 C 1033.941 1266.582 1034.552 1261.3 1029.714 1261.422 C 1026.591 1261.513 1016.249 1263.221 1004.814 1268.802 C 997.886 1272.194 991.959 1276.62 988.234 1279.965 L 990.004 1288.627 C 993.291 1285.648 1000.608 1277.695 1010.043 1273.349 C 1020.433 1268.535 1028.607 1268.038 1031.275 1267.311 Z  M 1021.396 1248.611 C 1024.031 1247.914 1024.714 1242.799 1019.941 1242.9 C 1016.867 1242.977 1010.203 1244.088 998.759 1249.392 C 992.734 1252.199 987.456 1255.773 983.728 1258.769 L 985.697 1266.762 C 989.517 1263.246 995.976 1257.309 1003.886 1253.843 C 1014.277 1249.269 1018.759 1249.309 1021.396 1248.611 Z  M 997.414 1310.275 L 997.66 1310.072 C 997.64 1310.084 997.619 1310.087 997.599 1310.094 C 997.541 1310.154 997.47 1310.222 997.414 1310.275 Z  M 1017.478 1294.23 C 1027.874 1289.173 1036.173 1288.631 1038.884 1287.876 C 1041.591 1287.12 1042.128 1281.658 1037.198 1281.795 C 1034.01 1281.893 1023.557 1283.709 1012.136 1289.576 C 1002.298 1294.637 996.486 1299.945 994.154 1302.98 C 991.246 1306.728 995.338 1311.317 997.597 1310.092 C 1000.896 1306.95 1008.095 1298.77 1017.478 1294.23 Z  M 997.414 1310.275 L 996.246 1311.243 C 996.537 1311.064 996.931 1310.729 997.414 1310.275 Z  M 1048.681 1305.637 C 1048.66 1305.451 1048.624 1305.267 1048.572 1305.087 C 1048.52 1304.907 1048.453 1304.733 1048.367 1304.563 C 1048.197 1304.226 1047.961 1303.917 1047.648 1303.659 C 1047.027 1303.138 1046.113 1302.811 1044.847 1302.845 C 1041.579 1302.945 1030.958 1304.84 1019.535 1310.988 C 1009.689 1316.289 1001.969 1323.792 999.662 1326.94 C 998.215 1328.904 998.697 1330.886 999.826 1332.209 C 1000.39 1332.868 1001.117 1333.359 1001.842 1333.603 C 1002.203 1333.724 1002.567 1333.782 1002.906 1333.765 C 1002.992 1333.761 1003.076 1333.752 1003.158 1333.739 C 1003.242 1333.726 1003.322 1333.71 1003.4 1333.685 C 1003.558 1333.639 1003.709 1333.573 1003.849 1333.487 C 1006.079 1332.067 1013.976 1321.325 1024.995 1315.762 C 1035.419 1310.472 1043.888 1309.908 1046.655 1309.127 C 1048.041 1308.736 1048.849 1307.127 1048.681 1305.637 Z " fill="rgb(111,103,99)"/></g></g></g><g><g><g><path d=" M 883.068 514.02 L 847.187 518.596 L 886.922 535.453 L 910.281 521.004 L 883.068 514.02 Z " fill="rgb(199,199,199)"/></g></g></g><g><g><g><path d=" M 982.101 511.38 L 958.458 494.272 C 958.458 494.272 942.749 510.626 923.411 523.358 C 906.397 534.556 893.837 542.33 893.837 542.33 C 893.837 542.33 873.751 537.919 851.789 527.324 C 824.597 514.205 794.603 495.673 794.603 495.673 L 771.846 511.014 L 716.134 532.484 L 770.796 582.27 L 782.7 608.772 C 782.7 608.772 785.562 612.981 786.875 619.212 C 788.494 626.908 790.597 638.109 791.977 649.474 C 794.719 672.056 793.206 695.259 793.206 695.259 C 793.206 695.259 816.188 709.947 840.75 720.301 C 866.408 731.119 893.689 737.628 893.689 737.628 L 933.601 706.464 C 933.601 706.464 943.978 665.078 950.228 626.818 C 955.437 594.931 956.183 573.627 956.183 573.627 L 1019.73 529.639 L 982.101 511.38 Z  M 949.392 760.06 C 945.011 764.714 908.218 781.913 908.218 781.913 L 884.866 792.745 L 773.873 761.367 L 770.363 776.216 C 770.363 776.216 785.934 812.684 789.219 825.278 C 803.892 834.724 874.26 869.14 874.26 869.14 L 910.64 847.078 C 910.644 847.075 953.771 755.406 949.392 760.06 Z " fill="rgb(199,199,199)"/></g></g></g><g><g><g><path d=" M 982.101 511.38 L 958.458 494.272 C 958.458 494.272 942.749 510.626 923.411 523.358 C 906.397 534.556 893.837 542.33 893.837 542.33 C 893.837 542.33 901.962 583.059 901.929 626.908 C 901.888 679.846 893.687 737.627 893.687 737.627 L 933.601 706.463 C 933.601 706.463 943.976 665.077 950.226 626.817 C 955.435 594.93 956.183 573.626 956.183 573.626 L 1019.73 529.638 L 982.101 511.38 Z  M 949.392 760.06 C 945.011 764.714 884.747 792.64 884.747 792.64 L 874.225 868.744 L 913.919 848.106 L 947.294 799.269 C 947.297 799.27 951.625 757.688 949.392 760.06 Z " fill="rgb(153,153,152)"/></g></g></g><g><g><g><path d=" M 786.167 615.608 L 814.717 569.307 L 717.107 532.655 L 770.734 582.426 L 786.167 615.608 Z  M 812.717 817.434 C 804.627 809.71 782.414 800.921 782.414 800.921 L 770.365 776.213 L 786.346 825.58 L 832.408 848.443 C 832.41 848.442 820.807 825.157 812.717 817.434 Z " fill="rgb(0,0,0)"/></g></g></g><g><g><g><path d=" M 811.232 826.049 L 785 826.049 C 785 826.049 764.286 879.952 750.1 936.813 C 736.746 990.345 729.866 1047.036 729.866 1047.036 L 738.287 1072.433 C 738.287 1072.433 757.619 1075.904 766.062 1057.306 C 768.452 1050.741 765.268 1040.743 784.711 980.879 C 792.703 956.275 804.846 913.339 811.567 882.241 C 816.142 861.083 817.012 845.168 817.012 845.168 L 811.232 826.049 Z  M 718.18 1079.623 C 718.18 1079.623 698.266 1085.12 691.42 1099.565 C 689.058 1104.546 661.239 1151.615 661.239 1151.615 C 661.239 1151.615 656.51 1185.739 652.464 1199.345 C 633.903 1261.766 626.134 1324.51 626.134 1324.51 L 654.831 1343.323 C 654.831 1343.323 661.269 1355.837 669.933 1349.375 C 670.729 1348.782 667.131 1291.124 680.495 1228.563 C 674.849 1254.988 728.351 1113.384 728.351 1113.384 L 721.471 1100.344 L 718.18 1079.623 Z " fill="rgb(0,0,0)"/></g></g></g><g><g><g><path d=" M 733.908 573.253 C 735.763 574.538 736.929 573.976 743.184 580.746 C 749.791 587.899 750.356 590.464 751.639 592.078 C 752.923 593.692 757.031 592.919 755.907 589.126 C 753.967 582.581 741.379 570.134 736.85 568.64 C 732.411 567.176 732.05 571.968 733.908 573.253 Z  M 726.928 585.906 C 728.782 587.198 729.949 586.638 736.179 593.431 C 742.761 600.609 743.316 603.175 744.594 604.793 C 745.872 606.411 749.981 605.653 748.87 601.857 C 746.953 595.303 734.41 582.813 729.889 581.301 C 725.453 579.823 725.075 584.614 726.928 585.906 Z  M 720.587 601.259 C 722.518 602.43 723.649 601.799 730.299 608.181 C 737.324 614.923 738.043 617.452 739.421 618.986 C 740.799 620.517 744.852 619.501 743.501 615.783 C 741.17 609.367 727.855 597.699 723.249 596.479 C 718.727 595.283 718.656 600.088 720.587 601.259 Z  M 713.707 614.111 C 715.648 615.261 716.772 614.62 723.489 620.934 C 730.582 627.607 731.325 630.124 732.718 631.644 C 734.112 633.165 738.156 632.104 736.766 628.402 C 734.371 622.007 720.941 610.475 716.322 609.302 C 711.787 608.154 711.764 612.96 713.707 614.111 Z  M 730.705 642.948 C 728.261 636.574 714.742 625.143 710.112 624.009 C 705.569 622.894 705.584 627.7 707.536 628.836 C 709.488 629.972 710.605 629.321 717.37 635.585 C 724.515 642.201 725.276 644.715 726.682 646.224 C 728.087 647.73 732.121 646.641 730.705 642.948 Z  M 704.37 637.823 C 699.828 636.708 699.842 641.512 701.794 642.65 C 703.746 643.787 704.865 643.133 711.628 649.399 C 718.773 656.013 719.535 658.528 720.94 660.037 C 722.345 661.546 726.378 660.456 724.962 656.763 C 722.518 650.389 708.999 638.96 704.37 637.823 Z  M 690.774 669.934 C 692.767 670.996 693.86 670.303 700.856 676.306 C 708.247 682.647 709.103 685.13 710.564 686.585 C 712.025 688.04 716.015 686.797 714.46 683.16 C 711.775 676.883 697.835 665.972 693.166 665.014 C 688.584 664.07 688.78 668.872 690.774 669.934 Z  M 686.929 683.904 C 688.922 684.966 690.015 684.273 697.011 690.276 C 704.4 696.617 705.258 699.098 706.719 700.553 C 708.18 702.008 712.17 700.765 710.615 697.128 C 707.929 690.853 693.989 679.942 689.321 678.982 C 684.739 678.04 684.935 682.842 686.929 683.904 Z  M 681.956 698.713 C 683.97 699.735 685.05 699.02 692.164 704.881 C 699.679 711.073 700.586 713.538 702.076 714.964 C 703.564 716.389 707.53 715.068 705.903 711.462 C 703.092 705.24 688.936 694.612 684.25 693.745 C 679.65 692.895 679.942 697.692 681.956 698.713 Z  M 677.451 712.758 C 679.465 713.78 680.545 713.067 687.659 718.926 C 695.174 725.118 696.081 727.583 697.572 729.009 C 699.06 730.434 703.024 729.113 701.397 725.507 C 698.588 719.285 684.431 708.657 679.744 707.79 C 675.145 706.939 675.437 711.737 677.451 712.758 Z  M 672.763 728.551 C 674.836 729.447 675.869 728.666 683.332 734.077 C 691.215 739.793 692.272 742.198 693.848 743.528 C 695.423 744.859 699.298 743.295 697.452 739.797 C 694.264 733.76 679.475 724.027 674.746 723.452 C 670.102 722.886 670.69 727.656 672.763 728.551 Z  M 669.368 742.789 C 671.441 743.685 672.474 742.904 679.936 748.314 C 687.819 754.03 688.876 756.434 690.453 757.764 C 692.028 759.095 695.903 757.533 694.056 754.035 C 690.868 747.998 676.081 738.264 671.349 737.687 C 666.707 737.124 667.295 741.894 669.368 742.789 Z  M 666.298 759.511 C 668.372 760.407 669.403 759.626 676.867 765.037 C 684.75 770.753 685.806 773.157 687.383 774.488 C 688.96 775.819 692.833 774.254 690.986 770.757 C 687.798 764.72 673.011 754.987 668.279 754.412 C 663.636 753.846 664.224 758.616 666.298 759.511 Z  M 663.608 773.749 C 665.681 774.645 666.714 773.865 674.177 779.275 C 682.06 784.991 683.117 787.394 684.693 788.724 C 686.268 790.055 690.143 788.493 688.297 784.995 C 685.109 778.958 670.322 769.224 665.59 768.65 C 660.947 768.084 661.534 772.854 663.608 773.749 Z  M 660.778 789.751 C 662.85 790.647 663.883 789.866 671.346 795.277 C 679.229 800.993 680.286 803.398 681.863 804.726 C 683.437 806.056 687.312 804.494 685.466 800.997 C 682.278 794.96 667.491 785.226 662.759 784.651 C 658.117 784.086 658.704 788.856 660.778 789.751 Z  M 658.088 803.989 C 660.162 804.884 661.193 804.102 668.657 809.513 C 676.54 815.23 677.596 817.634 679.173 818.964 C 680.748 820.294 684.623 818.732 682.776 815.235 C 679.588 809.198 664.801 799.464 660.069 798.887 C 655.427 798.324 656.014 803.093 658.088 803.989 Z  M 656.698 818.551 C 658.771 819.447 659.803 818.666 667.266 824.077 C 675.149 829.793 676.206 832.197 677.783 833.528 C 679.358 834.859 683.232 833.294 681.386 829.797 C 678.198 823.76 663.411 814.027 658.679 813.452 C 654.037 812.886 654.625 817.656 656.698 818.551 Z  M 654.008 832.789 C 656.082 833.685 657.115 832.904 664.577 838.314 C 672.46 844.03 673.516 846.434 675.093 847.764 C 676.668 849.095 680.543 847.532 678.697 844.035 C 675.509 837.998 660.721 828.264 655.99 827.687 C 651.347 827.124 651.935 831.894 654.008 832.789 Z  M 696.294 657.693 C 698.287 658.755 699.38 658.062 706.376 664.065 C 713.765 670.406 714.623 672.887 716.084 674.342 C 717.545 675.797 721.535 674.554 719.98 670.918 C 717.296 664.641 703.355 653.731 698.686 652.772 C 694.104 651.83 694.3 656.632 696.294 657.693 Z  M 982.406 575.999 C 989.551 570.174 990.625 570.894 992.644 569.883 C 994.664 568.871 994.98 564.076 990.376 564.904 C 985.685 565.747 971.474 576.3 968.632 582.508 C 966.986 586.105 970.943 587.447 972.441 586.029 C 973.939 584.612 974.857 582.151 982.406 575.999 Z  M 987.56 589.543 C 994.683 583.693 995.761 584.409 997.779 583.391 C 999.795 582.372 1000.091 577.578 995.494 578.419 C 990.805 579.279 976.631 589.885 973.812 596.102 C 972.177 599.706 976.14 601.035 977.632 599.612 C 979.125 598.188 980.037 595.724 987.56 589.543 Z  M 991.31 604.971 C 998.79 599.586 999.822 600.37 1001.898 599.484 C 1003.974 598.594 1004.58 593.829 999.935 594.377 C 995.201 594.936 980.378 604.617 977.171 610.642 C 975.312 614.133 979.181 615.711 980.759 614.386 C 982.34 613.06 983.408 610.659 991.31 604.971 Z  M 996.261 618.556 C 1003.796 613.247 1004.82 614.041 1006.904 613.174 C 1008.99 612.307 1009.642 607.546 1004.992 608.048 C 1000.254 608.559 985.336 618.091 982.066 624.084 C 980.171 627.557 984.025 629.173 985.619 627.864 C 987.211 626.555 988.3 624.164 996.261 618.556 Z  M 1000.261 633.919 C 1007.835 628.669 1008.853 629.47 1010.945 628.619 C 1013.039 627.766 1013.726 623.013 1009.074 623.476 C 1004.33 623.953 989.34 633.369 986.023 639.334 C 984.103 642.792 987.943 644.438 989.546 643.141 C 991.148 641.848 992.257 639.466 1000.261 633.919 Z  M 1004.006 648.404 C 1011.582 643.153 1012.598 643.955 1014.69 643.102 C 1016.786 642.251 1017.473 637.497 1012.821 637.961 C 1008.079 638.436 993.089 647.852 989.77 653.819 C 987.848 657.277 991.688 658.923 993.291 657.627 C 994.894 656.331 996.004 653.95 1004.006 648.404 Z  M 999.836 685.37 C 1001.486 684.135 1002.684 681.797 1010.891 676.557 C 1018.662 671.597 1019.647 672.436 1021.768 671.665 C 1023.891 670.894 1024.76 666.167 1020.092 666.457 C 1015.334 666.752 999.998 675.595 996.459 681.433 C 994.408 684.814 998.183 686.606 999.836 685.37 Z  M 1001.677 699.741 C 1003.327 698.506 1004.527 696.168 1012.734 690.928 C 1020.504 685.968 1021.488 686.807 1023.611 686.036 C 1025.734 685.265 1026.601 680.538 1021.933 680.828 C 1017.177 681.122 1001.839 689.965 998.302 695.803 C 996.252 699.186 1000.027 700.976 1001.677 699.741 Z  M 1004.252 714.661 C 1005.928 713.459 1007.172 711.143 1015.481 706.071 C 1023.348 701.265 1024.317 702.127 1026.458 701.398 C 1028.595 700.669 1029.558 695.96 1024.886 696.157 C 1020.124 696.357 1004.615 704.888 1000.958 710.656 C 998.838 713.997 1002.576 715.862 1004.252 714.661 Z  M 1006.738 729.199 C 1008.414 727.997 1009.658 725.681 1017.967 720.609 C 1025.834 715.803 1026.803 716.665 1028.94 715.934 C 1031.083 715.205 1032.045 710.497 1027.372 710.695 C 1022.606 710.893 1007.099 719.426 1003.44 725.194 C 1001.324 728.535 1005.062 730.4 1006.738 729.199 Z  M 1008.382 744.097 C 1010.128 743.001 1011.513 740.769 1020.122 736.218 C 1028.267 731.909 1029.183 732.826 1031.362 732.231 C 1033.542 731.636 1034.792 726.998 1030.116 726.905 C 1025.348 726.808 1009.343 734.369 1005.339 739.896 C 1003.019 743.1 1006.636 745.193 1008.382 744.097 Z  M 1009.746 758.671 C 1011.492 757.575 1012.877 755.343 1021.484 750.791 C 1029.632 746.482 1030.546 747.4 1032.724 746.805 C 1034.904 746.21 1036.156 741.573 1031.478 741.477 C 1026.712 741.382 1010.707 748.943 1006.703 754.47 C 1004.382 757.674 1007.998 759.767 1009.746 758.671 Z  M 1010.433 775.658 C 1012.181 774.56 1013.566 772.33 1022.173 767.779 C 1030.321 763.468 1031.235 764.386 1033.413 763.793 C 1035.593 763.198 1036.845 758.558 1032.169 758.465 C 1027.403 758.37 1011.396 765.929 1007.39 771.458 C 1005.072 774.661 1008.687 776.754 1010.433 775.658 Z  M 1011.097 790.133 C 1012.843 789.037 1014.228 786.805 1022.835 782.254 C 1030.981 777.945 1031.896 778.863 1034.077 778.268 C 1036.255 777.673 1037.507 773.035 1032.831 772.94 C 1028.063 772.845 1012.058 780.406 1008.054 785.933 C 1005.734 789.136 1009.351 791.229 1011.097 790.133 Z  M 1033.386 789.18 C 1028.62 789.085 1012.613 796.644 1008.607 802.173 C 1006.289 805.377 1009.906 807.469 1011.652 806.374 C 1013.398 805.278 1014.783 803.046 1023.39 798.494 C 1031.538 794.183 1032.452 795.101 1034.63 794.508 C 1036.81 793.913 1038.062 789.273 1033.386 789.18 Z  M 1034.049 803.655 C 1029.283 803.558 1013.276 811.119 1009.272 816.648 C 1006.956 819.85 1010.571 821.944 1012.315 820.847 C 1014.061 819.751 1015.45 817.519 1024.055 812.967 C 1032.203 808.658 1033.117 809.576 1035.295 808.982 C 1037.473 808.388 1038.724 803.748 1034.049 803.655 Z  M 1011.644 835.461 C 1013.39 834.365 1014.777 832.133 1023.382 827.582 C 1031.53 823.273 1032.444 824.189 1034.624 823.596 C 1036.802 823.001 1038.054 818.363 1033.378 818.268 C 1028.612 818.173 1012.605 825.734 1008.601 831.261 C 1006.281 834.464 1009.898 836.558 1011.644 835.461 Z  M 1034.043 832.742 C 1029.275 832.645 1013.27 840.206 1009.266 845.735 C 1006.948 848.937 1010.561 851.032 1012.309 849.934 C 1014.055 848.838 1015.44 846.607 1024.047 842.054 C 1032.195 837.745 1033.109 838.662 1035.287 838.07 C 1037.465 837.475 1038.718 832.835 1034.043 832.742 Z  M 1007.144 663.662 C 1014.914 658.702 1015.898 659.542 1018.021 658.768 C 1020.144 657.997 1021.013 653.271 1016.345 653.56 C 1011.587 653.857 996.251 662.699 992.712 668.537 C 990.661 671.92 994.437 673.71 996.087 672.475 C 997.74 671.24 998.937 668.902 1007.144 663.662 Z  M 796.033 863.509 C 787.153 858.36 778.812 856.854 776.254 856.842 C 772.301 856.824 772.936 861.693 775.108 862.304 C 777.283 862.917 783.869 863.282 791.98 867.658 C 800.55 872.281 806.812 881.098 808.549 882.211 C 810.286 883.32 813.848 879.956 811.554 876.732 C 809.723 874.156 803.691 867.952 796.033 863.509 Z  M 800.833 845.509 C 791.955 840.36 783.614 838.854 781.055 838.842 C 777.102 838.824 777.736 843.693 779.91 844.304 C 782.084 844.917 788.669 845.282 796.782 849.658 C 805.349 854.281 811.612 863.098 813.348 864.211 C 815.085 865.323 818.647 861.956 816.354 858.732 C 814.523 856.156 808.491 849.952 800.833 845.509 Z  M 790.513 882.23 C 781.634 877.079 773.294 875.575 770.734 875.561 C 766.783 875.542 767.418 880.412 769.589 881.023 C 771.763 881.635 778.348 882 786.461 886.377 C 795.031 891 801.293 899.819 803.03 900.93 C 804.765 902.041 808.329 898.675 806.035 895.452 C 804.203 892.876 798.171 886.672 790.513 882.23 Z  M 785.233 900.949 C 776.355 895.798 768.014 894.295 765.457 894.283 C 761.504 894.262 762.138 899.132 764.311 899.745 C 766.485 900.357 773.072 900.721 781.183 905.097 C 789.753 909.72 796.014 918.539 797.751 919.652 C 799.488 920.761 803.05 917.395 800.757 914.173 C 798.923 911.596 792.891 905.392 785.233 900.949 Z  M 775.393 935.989 C 766.515 930.838 758.174 929.335 755.617 929.323 C 751.664 929.302 752.298 934.172 754.471 934.785 C 756.645 935.395 763.23 935.761 771.343 940.137 C 779.912 944.76 786.174 953.579 787.911 954.69 C 789.646 955.801 793.21 952.435 790.916 949.212 C 789.083 946.636 783.051 940.432 775.393 935.989 Z  M 780.193 917.989 C 771.315 912.838 762.974 911.335 760.417 911.323 C 756.464 911.302 757.099 916.172 759.271 916.785 C 761.446 917.395 768.032 917.761 776.143 922.137 C 784.713 926.76 790.975 935.579 792.711 936.69 C 794.449 937.8 798.01 934.435 795.717 931.212 C 793.883 928.636 787.851 922.432 780.193 917.989 Z  M 769.873 954.709 C 760.995 949.559 752.653 948.055 750.095 948.043 C 746.142 948.024 746.777 952.892 748.95 953.505 C 751.123 954.118 757.709 954.481 765.822 958.859 C 774.389 963.48 780.653 972.298 782.388 973.411 C 784.125 974.521 787.687 971.156 785.393 967.932 C 783.563 965.356 777.531 959.152 769.873 954.709 Z  M 764.593 973.43 C 755.714 968.281 748.093 966.534 745.534 966.525 C 741.581 966.505 742.216 971.375 744.388 971.987 C 746.56 972.598 752.427 973.203 760.539 977.58 C 769.108 982.203 775.371 991.02 777.105 992.133 C 778.843 993.243 782.406 989.878 780.113 986.655 C 778.283 984.076 772.251 977.872 764.593 973.43 Z  M 755.953 1010.149 C 747.074 1004.998 741.373 1003.734 738.812 1003.72 C 734.86 1003.702 735.496 1008.571 737.667 1009.182 C 739.841 1009.795 743.787 1009.918 751.898 1014.294 C 760.466 1018.917 766.728 1027.736 768.465 1028.847 C 770.202 1029.958 773.764 1026.592 771.47 1023.369 C 769.643 1020.796 763.611 1014.592 755.953 1010.149 Z  M 760.753 992.149 C 751.875 986.998 744.494 985.494 741.935 985.482 C 737.982 985.462 738.619 990.332 740.79 990.944 C 742.964 991.555 748.59 991.921 756.702 996.297 C 765.27 1000.92 771.533 1009.739 773.268 1010.85 C 775.005 1011.961 778.568 1008.595 776.275 1005.372 C 774.443 1002.796 768.411 996.592 760.753 992.149 Z  M 750.433 1028.869 C 741.554 1023.719 737.774 1022.932 735.214 1022.923 C 731.261 1022.904 731.896 1027.772 734.069 1028.385 C 736.242 1028.998 738.266 1028.641 746.381 1033.017 C 754.95 1037.64 761.212 1046.459 762.949 1047.572 C 764.684 1048.681 768.248 1045.316 765.954 1042.093 C 764.123 1039.517 758.091 1033.313 750.433 1028.869 Z  M 745.153 1047.589 C 736.273 1042.441 734.653 1042.614 732.093 1042.603 C 728.14 1042.585 728.774 1047.454 730.948 1048.065 C 733.122 1048.678 732.988 1047.363 741.098 1051.74 C 749.668 1056.363 755.93 1065.179 757.666 1066.292 C 759.404 1067.402 762.965 1064.037 760.672 1060.813 C 758.843 1058.236 752.811 1052.032 745.153 1047.589 Z  M 804.913 827.269 C 796.035 822.12 787.694 820.617 785.135 820.603 C 781.182 820.584 781.816 825.454 783.99 826.065 C 786.164 826.678 792.749 827.043 800.862 831.419 C 809.429 836.042 815.691 844.861 817.428 845.972 C 819.165 847.083 822.727 843.717 820.433 840.494 C 818.603 837.916 812.571 831.712 804.913 827.269 Z  M 886.082 766.917 C 883.365 767.435 882.268 768.81 872.032 768.679 C 861.218 768.54 859.424 767.03 857.222 766.829 C 855.021 766.63 850.621 770.548 853.606 772.548 C 858.758 776 878.838 775.36 884.731 772.84 C 890.513 770.368 888.799 766.398 886.082 766.917 Z  M 883.381 758.672 C 889.164 756.2 887.451 752.233 884.733 752.749 C 882.016 753.267 880.922 754.643 870.683 754.511 C 859.871 754.372 858.077 752.862 855.875 752.661 C 853.674 752.462 849.272 756.38 852.259 758.38 C 857.408 761.831 877.488 761.191 883.381 758.672 Z  M 870.984 739.802 C 860.172 739.663 858.378 738.154 856.176 737.952 C 853.975 737.753 849.575 741.671 852.56 743.671 C 857.712 747.123 877.791 746.483 883.685 743.963 C 889.468 741.491 887.753 737.522 885.037 738.04 C 882.32 738.558 881.22 739.934 870.984 739.802 Z  M 846.696 493.924 C 849.071 493.706 851.659 492.256 863.489 491.99 C 874.79 491.737 877.364 494.071 880.402 494.547 C 883.439 495.025 885.234 490.569 878.687 488.198 C 872.011 485.78 850.771 485.075 845.394 488.543 C 842.305 490.534 844.327 494.141 846.696 493.924 Z  M 879.246 508.11 C 882.234 508.587 884.17 504.383 877.725 502.053 C 871.155 499.677 850.164 499.078 844.87 502.411 C 841.831 504.325 844.089 507.638 846.421 507.438 C 848.758 507.24 850.344 505.977 861.986 505.779 C 873.107 505.59 876.257 507.634 879.246 508.11 Z  M 695.198 1132.984 C 687.062 1129.109 679.508 1127.726 675.424 1127.433 L 672.247 1133.086 C 674.646 1133.541 681.622 1133.34 690.812 1137.331 C 700.52 1141.56 707.923 1150.089 709.916 1151.098 C 711.917 1152.119 715.773 1148.662 713.069 1145.565 C 710.914 1143.095 703.885 1137.119 695.198 1132.984 Z  M 699.8 1114.737 C 694.615 1112.152 689.672 1110.627 685.731 1109.781 L 682.7 1115.225 C 686.066 1115.751 690.5 1116.759 695.519 1119.037 C 705.134 1123.409 714.928 1134.005 716.908 1135.046 L 717.387 1135.286 C 719.374 1136.339 722.662 1132.728 719.956 1129.579 C 717.799 1127.068 708.4 1119.02 699.8 1114.737 Z  M 689.582 1152.008 C 679.432 1147.351 670.205 1146.456 667.4 1146.658 C 663.067 1146.961 663.839 1151.804 666.233 1152.238 C 668.629 1152.673 675.883 1152.521 685.127 1156.399 C 694.889 1160.503 702.31 1168.918 704.313 1169.9 C 706.328 1170.891 710.258 1167.377 707.549 1164.318 C 705.391 1161.879 698.329 1156.022 689.582 1152.008 Z  M 662.165 1166.13 C 657.862 1166.465 658.643 1171.29 661.013 1171.704 C 663.386 1172.118 670.593 1171.911 679.844 1175.694 C 689.615 1179.698 697.051 1188.016 699.059 1188.98 L 701.877 1182.871 C 699.282 1180.232 692.542 1174.939 684.325 1171.271 C 674.142 1166.729 664.944 1165.906 662.165 1166.13 Z  M 652.089 1201.887 C 647.941 1202.289 648.756 1207.085 651.038 1207.46 C 653.323 1207.835 660.285 1207.517 669.42 1211.141 C 676.241 1213.854 681.959 1218.739 685.429 1221.698 L 688.217 1215.256 C 684.831 1212.59 679.693 1209.202 673.824 1206.665 C 663.712 1202.297 654.763 1201.62 652.089 1201.887 Z  M 656.78 1183.416 C 652.541 1183.784 653.336 1188.595 655.668 1188.989 C 658.003 1189.384 665.106 1189.121 674.319 1192.824 C 682.798 1196.239 689.543 1202.945 692.463 1205.238 C 692.495 1205.225 695.217 1198.836 695.26 1198.8 C 692.145 1196.004 686.031 1191.551 678.782 1188.373 C 668.614 1183.92 659.514 1183.171 656.78 1183.416 Z  M 646.931 1221.165 C 642.911 1221.603 643.748 1226.385 645.962 1226.738 C 648.18 1227.092 654.936 1226.712 663.938 1230.255 C 669.719 1232.534 674.729 1236.43 678.213 1239.339 L 679.762 1232.189 C 676.619 1230.001 672.626 1227.627 668.234 1225.748 C 658.239 1221.47 649.519 1220.875 646.931 1221.165 Z  M 642.359 1240.428 C 638.477 1240.899 639.334 1245.662 641.477 1245.999 C 643.625 1246.334 650.165 1245.899 659.007 1249.367 C 665.757 1252.017 671.492 1256.963 674.891 1259.842 L 676.172 1252.336 C 672.868 1249.884 668.28 1247.008 663.168 1244.828 C 653.321 1240.638 644.857 1240.116 642.359 1240.428 Z  M 635.929 1277.954 C 632.24 1278.461 633.115 1283.187 635.173 1283.505 C 637.238 1283.821 643.483 1283.326 652.072 1286.678 C 661.143 1290.221 668.506 1298.171 670.414 1299.051 C 670.625 1299.15 670.855 1299.192 671.097 1299.183 L 671.634 1291.78 C 668.558 1289.098 662.696 1284.959 655.966 1282.102 C 646.386 1278.049 638.304 1277.622 635.929 1277.954 Z  M 639.507 1259.502 C 635.722 1259.992 636.595 1264.739 638.695 1265.064 C 640.8 1265.387 647.189 1264.919 655.912 1268.327 C 663.294 1271.214 669.499 1276.926 672.667 1279.538 L 673.603 1271.767 C 670.286 1269.223 665.41 1266.085 659.946 1263.766 C 650.219 1259.65 641.941 1259.179 639.507 1259.502 Z  M 651.625 1301.226 C 642.17 1297.229 634.23 1296.833 631.889 1297.168 C 628.257 1297.682 629.107 1302.386 631.15 1302.699 C 633.2 1303.011 639.365 1302.503 647.856 1305.807 C 656.827 1309.304 664.19 1317.207 666.083 1318.078 C 667.983 1318.953 671.432 1315.224 668.765 1312.342 C 666.641 1310.043 659.752 1304.67 651.625 1301.226 Z  M 647.818 1320.295 C 638.39 1316.337 630.425 1315.944 628.05 1316.274 C 626.205 1316.526 625.5 1317.827 625.497 1319.097 C 625.497 1319.177 625.499 1319.256 625.505 1319.335 C 625.511 1319.414 625.519 1319.493 625.528 1319.571 C 625.549 1319.725 625.583 1319.882 625.624 1320.03 C 625.707 1320.329 625.83 1320.609 625.983 1320.853 C 626.294 1321.344 626.733 1321.699 627.255 1321.777 C 629.344 1322.092 635.591 1321.592 644.102 1324.875 C 653.093 1328.343 660.511 1336.207 662.403 1337.072 C 662.641 1337.178 662.902 1337.218 663.17 1337.193 C 663.236 1337.184 663.304 1337.174 663.372 1337.163 C 663.438 1337.147 663.508 1337.133 663.576 1337.111 C 663.712 1337.07 663.847 1337.012 663.981 1336.945 C 664.519 1336.673 665.028 1336.197 665.396 1335.604 C 666.13 1334.419 666.293 1332.769 664.95 1331.333 C 662.814 1329.045 655.928 1323.707 647.818 1320.295 Z  M 721.845 1111.45 C 721.807 1111.258 721.75 1111.06 721.673 1110.865 C 721.518 1110.469 721.278 1110.066 720.941 1109.662 C 718.782 1107.097 711.804 1100.764 703.313 1096.295 C 700.755 1094.947 698.261 1093.872 695.921 1093.024 L 692.287 1097.874 C 694.395 1098.506 696.709 1099.356 699.165 1100.531 C 708.655 1105.082 716.049 1113.952 718.012 1115.037 C 718.995 1115.593 720.409 1115.047 721.233 1113.97 C 721.646 1113.431 721.913 1112.759 721.905 1112.02 C 721.905 1111.927 721.897 1111.833 721.887 1111.742 C 721.879 1111.642 721.864 1111.546 721.845 1111.45 Z " fill="rgb(110,102,99)"/></g></g></g><g><g><g><path d=" M 749.294 1051.034 C 748.9 1050.846 704.147 1028.011 702.48 1092.492 C 701.884 1115.562 707.845 1120.17 717.682 1118.213 C 722.724 1117.209 739.073 1109.47 748.286 1096.927 C 757.046 1085.003 760.009 1069.088 760.009 1069.088 C 760.009 1069.088 762.689 1058.249 749.294 1051.034 Z  M 1003.726 1058.001 C 1003.726 1058.001 1001.56 1046.954 989.507 1045.197 C 989.163 1045.168 949.359 1040.468 972.222 1100.924 C 980.404 1122.553 986.288 1124.631 992.437 1119.188 C 995.589 1116.399 1004.134 1103.194 1005.906 1088.157 C 1007.588 1073.86 1003.726 1058.001 1003.726 1058.001 Z " fill="rgb(40,40,41)"/></g></g></g><g><g><g><path d=" M 744.705 1060.301 C 744.424 1060.168 714.837 1045.332 713.734 1093.822 C 713.338 1111.176 717.284 1114.332 723.792 1112.36 C 727.128 1111.347 737.941 1104.704 744.039 1094.814 C 749.834 1085.413 751.794 1073.309 751.794 1073.309 C 751.794 1073.309 753.568 1065.033 744.705 1060.301 Z  M 1003.988 1061.56 C 1003.988 1061.56 1002.468 1052.805 992.986 1051.213 C 992.621 1051.17 961.422 1046.868 978.392 1094.883 C 984.474 1112.088 989.081 1113.829 994.027 1109.642 C 996.562 1107.496 1003.533 1097.222 1005.187 1085.389 C 1006.759 1074.14 1003.988 1061.56 1003.988 1061.56 Z " fill="rgb(171,172,173)"/></g></g></g><g><g><g><path d=" M 673.868 1346.539 C 669.395 1338.341 659.915 1337.18 659.915 1337.18 C 659.915 1337.18 663.682 1311.51 658.962 1308.531 C 654.241 1305.55 636.602 1306.296 628.153 1319.711 C 619.706 1333.126 604.55 1362.69 601.569 1377.1 C 598.589 1391.508 608.278 1393.995 608.278 1393.995 L 640.328 1400.206 C 640.328 1400.206 665.597 1400.534 682.284 1396.768 C 691.689 1394.645 697.351 1388.85 696.724 1386.789 C 694.986 1381.071 678.34 1354.737 673.868 1346.539 Z  M 1131.918 1377.732 C 1125.678 1373.693 1078.104 1338.408 1067.6 1330.529 C 1057.096 1322.65 1045.381 1299.891 1035.403 1309.611 C 1030.749 1313 1027.632 1320.428 1027.632 1320.428 L 1024.111 1344.042 C 1024.111 1344.042 1006.502 1354.854 1006.396 1355.274 C 1006.132 1356.325 1001.794 1369.032 1005.16 1376.961 C 1010.84 1379.505 1037.705 1386.357 1059.166 1389.376 C 1080.625 1392.397 1097.758 1394.772 1115.154 1396.084 C 1129.783 1397.191 1168.332 1401.309 1131.918 1377.732 Z " fill="rgb(199,199,199)"/></g></g></g><g><g><g><path d=" M 673.868 1346.539 C 669.395 1338.341 662.972 1332.896 662.972 1332.896 C 662.972 1332.896 663.68 1311.507 658.96 1308.528 C 658.217 1308.057 657.154 1307.68 655.857 1307.43 C 649.898 1319.712 640.725 1337.012 637.802 1352.511 C 632.226 1382.083 640.754 1397.074 658.862 1400.003 C 667.563 1399.825 671.095 1399.284 682.282 1396.761 C 691.687 1394.638 697.349 1388.842 696.722 1386.782 C 694.986 1381.071 678.34 1354.737 673.868 1346.539 Z  M 1131.918 1377.732 C 1125.678 1373.693 1078.104 1338.408 1067.6 1330.529 C 1059.219 1324.243 1050.067 1308.485 1041.641 1307.305 C 1042.975 1315.614 1055.42 1325.915 1064.469 1334.924 C 1088.571 1358.913 1113.313 1376.486 1139.377 1385.112 C 1143.379 1387.39 1146.785 1391.948 1147.111 1392.164 C 1146.886 1389.242 1142.67 1384.694 1131.918 1377.732 Z " fill="rgb(153,153,153)"/></g></g></g><g><g><g><path d=" M 1045.201 877.023 L 1038.541 850.383 L 1036.523 835.45 C 1036.523 835.45 1030.722 837.473 1023.386 837.277 C 1015.792 837.072 1006.656 834.641 1006.656 834.641 L 1002.217 847.758 L 1002.621 854.216 L 992.127 877.423 L 987.082 880.856 L 983.852 892.358 L 982.04 896.594 L 981.985 927.139 L 989.456 933.626 L 992.067 917.672 L 999.797 902.85 L 1001.008 909.307 L 1004.237 911.931 L 1004.237 937.158 L 1005.448 939.176 L 1004.843 955.118 L 1014.532 955.722 L 1017.153 943.009 L 1017.758 940.587 L 1023.207 917.985 L 1035.92 917.582 L 1037.535 932.918 L 1036.324 952.897 L 1040.359 956.731 L 1051.054 940.79 L 1053.677 918.793 L 1045.201 877.023 Z  M 707.261 861.644 C 706.484 860.61 706.387 858.519 706.387 858.519 L 692.498 848.175 L 684.727 831.598 C 684.727 831.598 679.501 834.432 671.843 833.673 C 663.839 832.88 653.388 828.49 653.388 828.49 L 652.612 832.116 L 643.288 857.24 L 638.626 886.509 L 640.957 892.207 L 641.216 895.314 L 662.195 908.263 L 679.548 915.256 L 688.207 913.585 L 692.239 921.472 C 692.239 921.472 702.081 915.256 704.929 914.74 C 707.78 914.22 711.145 912.409 711.145 912.409 L 715.291 885.73 L 717.622 882.623 L 717.363 870.968 C 717.362 870.968 708.039 862.68 707.261 861.644 Z " fill="rgb(199,199,199)"/></g></g></g><g><g><g><path d=" M 1045.201 877.023 L 1038.541 850.383 L 1036.523 835.45 L 1029.47 836.968 L 1050.331 908.447 L 1035.976 909.564 C 1035.976 909.564 1011.14 908.961 1003.255 908.772 C 1002.327 908.75 1001.634 908.733 1001.243 908.722 C 1001.966 896.433 1002.597 854.499 1002.597 854.499 L 992.251 877.298 L 986.888 880.747 L 981.909 896.074 L 981.718 927.112 L 989.734 933.957 L 991.873 917.532 L 999.727 903.163 C 999.727 903.163 1000.969 911.043 1001.219 909.033 L 1004.237 911.929 L 1004.237 937.156 L 1005.448 939.174 L 1004.843 955.116 L 1014.531 955.72 L 1017.154 943.007 L 1017.759 940.585 L 1023.208 917.983 L 1035.921 917.58 L 1037.536 932.916 L 1036.325 952.895 L 1040.358 956.729 L 1051.053 940.789 L 1053.676 918.792 L 1045.201 877.023 Z  M 708.542 862.811 C 707.998 862.223 706.13 857.927 706.13 857.927 C 706.13 857.927 699.852 852.226 698.784 850.827 C 692.03 841.984 684.958 832.212 684.958 832.212 C 684.958 832.212 681.344 832.429 680.98 833.136 C 680.702 833.681 701.444 870.266 701.179 870.833 C 695.719 882.511 693.281 898.313 693.281 898.313 L 640.958 892.208 L 641.217 895.315 L 662.196 908.264 L 679.549 915.257 L 687.367 916.532 L 692.24 921.47 C 692.24 921.47 702.082 915.254 704.93 914.738 C 707.781 914.218 711.146 912.407 711.146 912.407 L 715.292 885.729 L 717.623 882.621 L 717.364 870.966 C 717.362 870.968 709.32 863.847 708.542 862.811 Z " fill="rgb(153,153,152)"/></g></g></g><g><g><g><path d=" M 1005.445 939.177 L 1004.119 960.159 L 1013.807 960.763 L 1017.151 943.01 L 1017.756 940.588 L 1018.24 938.268 L 1004.234 937.16 L 1005.445 939.177 Z  M 640.957 892.207 L 641.216 895.314 L 662.195 908.263 L 679.548 915.256 L 687.366 916.531 L 692.239 921.469 C 692.239 921.469 702.081 915.253 704.929 914.737 C 707.779 914.217 711.145 912.406 711.145 912.406 L 693.281 898.307 L 640.957 892.207 Z  M 981.679 926.895 L 989.736 933.96 L 991.873 917.535 L 999.727 903.166 L 988.112 913.305 L 981.679 926.895 Z  M 1037.127 940.025 L 1034.352 961.326 L 1041.418 962.033 L 1051.104 940.669 L 1037.127 940.025 Z " fill="rgb(70,70,71)"/></g></g></g><g><g><g><ellipse vector-effect="non-scaling-stroke" cx="896.8283168068978" cy="599.209023912409" rx="40.77099999999996" ry="40.53899999999999" fill="rgb(27,28,24)"/></g></g></g><g><g><g><ellipse vector-effect="non-scaling-stroke" cx="897.1973168068978" cy="599.372023912409" rx="40.04499999999996" ry="39.81700000000001" fill="rgb(86,86,86)"/></g></g></g><g><g><g><ellipse vector-effect="non-scaling-stroke" cx="900.3593168068977" cy="596.9960239124089" rx="33.557000000000016" ry="33.36400000000003" fill="rgb(0,0,0)"/></g></g></g><g><g><g><ellipse vector-effect="non-scaling-stroke" cx="895.7133168068978" cy="601.617023912409" rx="23.24000000000001" ry="23.107999999999947" fill="rgb(0,191,165)"/></g></g></g><g><g><g><g><path d=" M 928.369 373.368 C 928.369 373.368 920.769 348.674 902.074 336.222 C 885.549 325.215 857.658 326.272 857.658 326.272 C 857.658 326.272 837.428 336.35 826.329 347.709 C 815.584 358.705 813.959 370.994 813.959 370.994 L 813.354 430.002 C 809.968 431.621 809.527 433.975 809.527 433.975 L 812.743 470.127 C 812.743 470.127 826.605 481.535 840.057 486.622 C 851.462 490.934 864.292 489.804 864.292 489.804 C 864.292 489.804 881.634 490.636 896.146 486.608 C 910.976 482.492 923.001 473.21 923.001 473.21 L 925.73 442.022 L 922.873 439.937 L 928.369 373.368 Z " fill="rgb(199,199,199)"/></g></g></g><g><g><g><path d=" M 928.369 373.368 C 928.369 373.368 920.769 348.674 902.074 336.222 C 885.549 325.215 857.658 326.272 857.658 326.272 C 857.658 326.272 850.703 333.616 848.103 361.013 C 845.505 388.411 843.147 421.563 843.147 421.563 C 841.359 422.418 859.143 422.858 873.789 425.372 C 886.871 427.617 899.337 432.101 899.337 432.101 C 899.337 432.101 871.3 428.487 869.972 431.724 C 869.999 431.703 868.889 465.523 869.076 465.803 C 869.805 470.953 893.211 472.395 893.211 472.395 C 893.211 472.395 906.234 471.895 915.273 470.83 C 920.222 470.246 923.8 468.786 923.8 468.786 L 925.728 442.024 L 922.871 439.938 L 928.369 373.368 Z " fill="rgb(153,153,152)"/></g></g></g><g><g><g><path d=" M 834.239 465.167 C 817.35 461.637 812.741 470.126 812.741 470.126 C 812.741 470.126 826.603 481.534 840.055 486.621 C 851.46 490.933 864.29 489.803 864.29 489.803 C 864.29 489.803 881.631 490.635 896.143 486.607 C 910.973 482.491 922.998 473.209 922.998 473.209 L 923.889 468.419 C 923.889 468.419 911.621 471.255 898.287 471.999 C 889.533 472.486 856.821 469.887 834.239 465.167 Z  M 847.673 424.302 C 879.254 427.684 925.496 442.106 925.496 442.106 C 925.496 442.106 907.971 434.027 887.719 428.828 C 867.443 423.621 846.52 421.206 840.28 421.057 C 834.038 420.91 830.424 421.88 822.418 424.091 C 814.863 426.177 813.293 429.893 813.293 429.893 C 813.293 429.893 824.734 421.845 847.673 424.302 Z " fill="rgb(70,70,70)"/></g></g></g><g><g><g><path d=" M 850.576 350.816 C 837.703 350.816 827.265 365.226 827.265 383.001 C 827.265 400.776 837.703 415.186 850.576 415.186 C 863.449 415.186 873.884 400.776 873.884 383.001 C 873.884 365.226 863.449 350.816 850.576 350.816 Z " fill="rgb(27,28,24)"/></g></g></g><g><g><g><path d=" M 846.84 359.302 C 837.915 359.302 830.68 369.248 830.68 381.518 C 830.68 393.788 837.915 403.733 846.84 403.733 C 855.765 403.733 863 393.787 863 381.518 C 863 369.249 855.763 359.302 846.84 359.302 Z " fill="rgb(255,255,255)"/></g></g></g></g><g opacity="0.19"><line x1="665" y1="440" x2="702.439" y2="428" vector-effect="non-scaling-stroke" stroke-width="1" stroke="rgb(0,0,0)" stroke-linejoin="miter" stroke-linecap="square" stroke-miterlimit="3"/></g><g opacity="0.19"><line x1="669.561" y1="452" x2="707" y2="440" vector-effect="non-scaling-stroke" stroke-width="1" stroke="rgb(0,0,0)" stroke-linejoin="miter" stroke-linecap="square" stroke-miterlimit="3"/></g><g opacity="0.19"><line x1="676.268" y1="464" x2="713.707" y2="452" vector-effect="non-scaling-stroke" stroke-width="1" stroke="rgb(0,0,0)" stroke-linejoin="miter" stroke-linecap="square" stroke-miterlimit="3"/></g><g opacity="0.19"><line x1="1041.726" y1="428" x2="1075.797" y2="447.619" vector-effect="non-scaling-stroke" stroke-width="1" stroke="rgb(0,0,0)" stroke-linejoin="miter" stroke-linecap="square" stroke-miterlimit="3"/></g><g opacity="0.19"><line x1="1035.919" y1="439.449" x2="1069.989" y2="459.067" vector-effect="non-scaling-stroke" stroke-width="1" stroke="rgb(0,0,0)" stroke-linejoin="miter" stroke-linecap="square" stroke-miterlimit="3"/></g><g opacity="0.19"><line x1="1031.556" y1="452.485" x2="1065.626" y2="472.104" vector-effect="non-scaling-stroke" stroke-width="1" stroke="rgb(0,0,0)" stroke-linejoin="miter" stroke-linecap="square" stroke-miterlimit="3"/></g></svg>