<?xml version="1.0" encoding="utf-8"?>
<!-- Generator: Adobe Illustrator 16.0.0, SVG Export Plug-In . SVG Version: 6.00 Build 0)  -->
<!DOCTYPE svg PUBLIC "-//W3C//DTD SVG 1.1//EN" "http://www.w3.org/Graphics/SVG/1.1/DTD/svg11.dtd">
<svg version="1.1" id="Layer_1" xmlns="http://www.w3.org/2000/svg" xmlns:xlink="http://www.w3.org/1999/xlink" x="0px" y="0px"
	 width="1207.2px" height="1484.641px" viewBox="0 0 1207.2 1484.641" enable-background="new 0 0 1207.2 1484.641"
	 xml:space="preserve">
<g id="Layer_1_1_">
	<g id="Background_xA0_Image_1_" display="none">
	</g>
	<g id="Shape_20_1_" enable-background="new    ">
		<g id="Shape_20">
			<g>
				<ellipse fill="#494949" cx="722.282" cy="1251.105" rx="374.457" ry="25.949"/>
			</g>
		</g>
	</g>
	<g id="Shape_19_1_" enable-background="new    ">
		<g id="Shape_19">
			<g>
				<path fill="#C1C1C1" d="M1106.717,802.682c-0.043-0.146-0.176-0.537-0.436-1.258c-0.521-1.438-1.541-4.214-3.355-8.997
					c-7.15-19.675-47.514-63.395-64.014-77.636c7.557,2.218,9.291,2.847,19.59,6.375c10.309,3.47,5.211,4.04,20.492-0.744
					c9.9-3.049,26.668-13.614,26.686-13.718c0.012-0.047-3.748-17.489-31.232-38.332c-27.422-21.227-20.777-46.506-35.123-52.354
					c-3.547-1.699-18.105-4.512-37.637-10.656c-19.553-6.015-44.07-15.36-68.066-27.052c-24.021-11.557-47.52-25.456-65.547-37.495
					c-18.055-11.906-30.641-21.953-33.367-22.726c-5.25-2.741-26.414-18.347-47.219-35.736
					c-20.836-17.206-41.314-36.196-45.914-41.499c-9.164-10.819-18.73-14.689-25.438-16.38
					c-6.744-1.477-100.91-42.865-102.721-43.911c-1.801-1.1-14.246,28.923-14.223,28.795c0.004-0.02-0.357,123.313,9.493,143.927
					c4.982,9.984,33.332,47.374,63.1,82.173c29.695,35.203,60.809,67.815,69.715,77.563c8.752,10.65,34.27,56.104,58.098,95.993
					c23.744,40.371,45.799,75.18,45.715,75.658c-0.064,0.388,45.801,68.628,76.748,122.72c17.863,31.157,28.961,58.02,28.965,58.002
					c0.002-0.011,3.93,9.832,7.029,15.821c1.686,3.243,3.49,4.259,3.49,4.257c0.004-0.027,1.721-16.716,5.902-26.628
					c10.963-26.104,32.094-65.252,32.098-65.276c0,0.006,10.205-6.181,16.709-21.138c5.59-12.854,7.6-34.104,7.334-38.965
					c-0.559-10.604-0.004-44.488,1.564-54.165c0.793-4.889,10.68-14.828,22.074-26.019c11.383-11.092,24.271-23.434,30.682-30.82
					c12.775-14.558,26.951-24.343,26.949-24.342c0.002-0.001,1.324,3.384,1.744,4.368c0.057,0.121,0.094,0.207,0.111,0.241
					c0.01,0.02,0.016,0.023,0.016,0.018S1106.729,802.718,1106.717,802.682z"/>
			</g>
		</g>
	</g>
	<g id="Shape_19_copy_1_" enable-background="new    ">
		<g id="Shape_19_copy">
			<g>
				
					<linearGradient id="SVGID_1_" gradientUnits="userSpaceOnUse" x1="646.6968" y1="581.2397" x2="1153.0708" y2="581.2397" gradientTransform="matrix(1 0 0 -1 -47.5 1314.6406)">
					<stop  offset="0" style="stop-color:#414141"/>
					<stop  offset="1" style="stop-color:#000000"/>
				</linearGradient>
				<path fill="url(#SVGID_1_)" stroke="#000000" stroke-miterlimit="10" d="M1044.534,766.503
					c-8.098-12.521,3.41-27.124,16.85-35.497c13.414-8.168,29-14.907,28.957-16.578c-0.363-17.971-37.959-18.834-37.941-19.147
					c0.012,0.135-44.391-8.137-76.078-22.643c-26.188-11.261-54.336-26.046-81.371-44.737
					c-27.066-18.488-53.02-40.885-75.521-62.653c-22.51-21.729-41.568-42.837-55.082-57.778
					c-13.5-15.062-21.445-23.957-21.449-24.047c-0.219,0.743-94.633-85.272-129.266-102.051c-0.898-0.668-4.561,6.779-7.938,13.897
					c-3.389,7.199-6.494,14.071-6.496,14.09c0.004-0.03-0.335,123.037,9.357,147.172c4.912,11.438,32.859,59.149,62.783,100.003
					c29.775,41.884,61.529,76.904,70.611,86.78c4.521,5.07,13.209,19.592,23.877,36.535c10.654,17.07,23.291,36.564,35.42,54.458
					c24.291,35.771,46.363,65.687,46.328,65.973c-0.006,0.57,46.088,57.917,76.025,108.944
					c17.359,29.205,27.846,56.156,27.857,56.108c0.002-0.018,3.719,9.792,6.689,15.843c1.611,3.271,3.395,4.3,3.395,4.298
					c0.004-0.05,2.09-16.872,6.525-26.72c11.578-26,34.096-64.573,34.127-64.672c0,0.007,10.498-6.341,17.594-21.302
					c6.137-12.999-36.545-18.938-36.711-23.403c-0.152-4.938,11.439-18.447,23.492-33.09c12.023-14.461,24.508-30.052,25.482-34.97
					c0.979-4.956,17.279-20.54,35.395-40.081c18.062-19.101,31.236-35.789,38.125-45.515
					C1102.877,788.337,1057.663,787.166,1044.534,766.503z"/>
			</g>
		</g>
	</g>
	<g id="Shape_13_1_" enable-background="new    ">
		<g id="Shape_13">
			<g>
				<path fill="#C7C7C7" d="M656.487,236.95c0,0-7.6-24.694-26.295-37.146c-16.525-11.007-44.416-9.95-44.416-9.95
					s-20.23,10.078-31.329,21.437c-10.745,10.996-12.37,23.285-12.37,23.285l-0.605,59.008c-3.386,1.619-3.827,3.973-3.827,3.973
					l3.216,36.152c0,0,13.862,11.408,27.314,16.495c11.405,4.312,24.235,3.182,24.235,3.182s17.342,0.832,31.854-3.196
					c14.83-4.116,26.855-13.398,26.855-13.398l2.729-31.188l-2.857-2.085L656.487,236.95z"/>
			</g>
		</g>
	</g>
	<g id="Shape_13_copy_1_" enable-background="new    ">
		<g id="Shape_13_copy">
			<g>
				<path fill="#999998" d="M656.487,236.95c0,0-7.6-24.694-26.295-37.146c-16.525-11.007-44.416-9.95-44.416-9.95
					s-6.955,7.344-9.555,34.741c-2.598,27.398-4.956,60.55-4.956,60.55c-1.788,0.855,15.996,1.295,30.642,3.809
					c13.082,2.245,25.548,6.729,25.548,6.729s-28.037-3.614-29.365-0.377c0.027-0.021-1.083,33.799-0.896,34.079
					c0.729,5.15,24.135,6.592,24.135,6.592s13.023-0.5,22.062-1.565c4.949-0.584,8.527-2.044,8.527-2.044l1.928-26.762l-2.857-2.086
					L656.487,236.95z"/>
			</g>
		</g>
	</g>
	<g id="Shape_13_copy_2_1_" enable-background="new    ">
		<g id="Shape_13_copy_2">
			<g>
				<path fill="#464646" d="M562.357,328.749c-16.889-3.53-21.498,4.959-21.498,4.959s13.862,11.408,27.314,16.495
					c11.405,4.312,24.235,3.182,24.235,3.182s17.341,0.832,31.853-3.196c14.83-4.116,26.855-13.398,26.855-13.398l0.891-4.79
					c0,0-12.268,2.836-25.602,3.58C617.651,336.068,584.939,333.469,562.357,328.749z M575.791,287.884
					c31.581,3.382,77.823,17.804,77.823,17.804s-17.525-8.079-37.777-13.278c-20.276-5.207-41.199-7.622-47.439-7.771
					c-6.242-0.147-9.856,0.823-17.862,3.034c-7.555,2.086-9.125,5.802-9.125,5.802S552.852,285.427,575.791,287.884z"/>
			</g>
		</g>
	</g>
	<g id="Shape_14_1_" enable-background="new    ">
		<g id="Shape_14">
			<g>
				<path fill="#1B1C18" d="M578.694,214.398c-12.873,0-23.311,14.41-23.311,32.185s10.438,32.185,23.311,32.185
					s23.308-14.41,23.308-32.185S591.567,214.398,578.694,214.398z"/>
			</g>
		</g>
	</g>
	<g id="Shape_1_1_" enable-background="new    ">
		<g id="Shape_1">
			<g>
				<path fill="#1B1C18" d="M478.037,402.26c0,0-47.699,84.566-70.702,160.769c-20.253,67.091-25.923,131.802-25.923,131.802
					s7.941,3.516,15.288,3.8c6.835,0.264,14.269-1.788,14.269-1.788s5.667-64.309,28.238-134.004
					c22.571-69.696,67.097-150.598,67.097-150.598l-6.953-8.707L478.037,402.26z M757.18,566.088
					c-12.066-78.676-47.412-169.104-47.412-169.104l-21.279-1.734l-8.107,7.643c0,0,32.717,86.355,45.271,158.531
					s9.131,136.644,9.131,136.644s7.072,3.074,13.877,3.773c7.311,0.751,15.67-1.615,15.67-1.615S767.807,635.36,757.18,566.088z
					 M615.344,596.124l-2.699-11.609c0,0-23.22-14.039-24.3-13.229c-1.08,0.81-9.72,16.199-9.72,16.199l2.7,62.364
					c0,0,8.864,11.797,19.128,13.036c9.842,1.188,21.102-8.176,21.102-8.176s-3.504-17.232-5.195-33.201
					C614.979,608.486,615.344,596.124,615.344,596.124z M612.653,349.175c0,0-6.195-4.61-20.986-4.581
					c-14.792,0.031-20.235,5.229-20.235,5.229l-0.97,25.218l4.526,2.748l37.34-4.365L612.653,349.175z"/>
			</g>
		</g>
	</g>
	<g id="Shape_3_1_" enable-background="new    ">
		<g id="Shape_3">
			<g>
				<path d="M634.303,419.745l18.062-17.339l1.203-20.951l-44.312-10.596l-63.814,6.261l50.089,42.866L634.303,419.745z
					 M598.021,639.497l-47.288,3.395c0,0,28.614,35.164,29.343,36.136c0.728,0.97,49.471-3.396,49.471-3.396l24.98-18.916
					l5.816-14.793L598.021,639.497z"/>
			</g>
		</g>
	</g>
	<g id="Shape_7_1_" enable-background="new    ">
		<g id="Shape_7">
			<g>
				<path d="M741.68,1084.107c-5.107-18.44-7.6-24.92-12.314-41.826c-1.633-5.856-9.324-32.435-10.457-39.465
					c-6.826-33.563,5.68-89.461,5.637-91.93c-0.666-6.956-7.836-14.616-16.002-77.022c-3.354-25.649-10.842-69.641-18.135-100.607
					c-7.346-31.2-13.725-44.521-17.016-48.781c-3.291-4.259-8.254-4.964-8.254-4.964l-22.867,14.421
					c0,0,4.459,57.574,16.082,115.016c10.943,54.076,29.092,108.221,29.092,108.221l4.473,14.388c0,0-3.033,9.452-4.803,21.096
					c-3.203,21.06-6.043,50.225-6.043,50.225s-1.104,13.984,0.598,28.379c2.404,20.333,5.525,28.188,14.91,44.32
					c12.217,21.002,23.439,89.372,37.023,150.595c9.746,0.318,24.924-7.316,24.924-7.316s29.637-17.945,29.303-27.312
					C769.208,1144.966,746.79,1102.547,741.68,1084.107z"/>
			</g>
		</g>
	</g>
	<g id="Shape_9_1_" enable-background="new    ">
		<g id="Shape_9">
			<g>
				<path fill="#6F6763" d="M650.077,736.885c1.822-0.938,8.791-9.115,17.707-12.893c8.441-3.577,15.025-3.305,17.242-3.706
					c2.215-0.401,3.254-5.187-0.684-5.547c-2.549-0.234-10.977,0.461-20.244,4.733c-7.994,3.688-14.518,9.282-16.557,11.669
					C644.991,734.131,648.254,737.823,650.077,736.885z M664.51,705.614c8.441-3.577,11.428-3.064,13.643-3.466
					c2.215-0.402,3.252-5.187-0.684-5.549c-2.549-0.232-7.377,0.223-16.645,4.495c-7.994,3.688-14.52,9.282-16.559,11.669
					c-2.553,2.987,0.711,6.681,2.533,5.741C648.625,717.568,655.594,709.392,664.51,705.614z M671.713,743.156
					c8.441-3.577,15.025-3.307,17.24-3.706c2.215-0.401,3.254-5.187-0.682-5.547c-2.551-0.234-10.979,0.461-20.244,4.732
					c-7.994,3.688-15.957,10.725-17.996,13.109c-2.553,2.987,0.711,6.68,2.533,5.741
					C654.387,756.551,662.797,746.934,671.713,743.156z M675.405,762.297c8.439-3.576,15.025-3.305,17.242-3.706
					c2.215-0.399,3.252-5.185-0.686-5.547c-2.547-0.234-10.975,0.461-20.242,4.734c-7.994,3.687-16.678,11.44-18.717,13.83
					c-2.553,2.985,0.711,6.679,2.533,5.739C657.36,776.411,666.489,766.074,675.405,762.297z M699.512,794.414
					c2.215-0.401,3.252-5.186-0.684-5.546c-2.549-0.234-10.979,0.46-20.244,4.732c-7.994,3.688-16.916,11.923-18.957,14.312
					c-2.551,2.986,0.713,6.679,2.535,5.74c1.822-0.939,11.188-11.755,20.105-15.532
					C690.711,794.544,697.297,794.816,699.512,794.414z M696.239,776.036c2.215-0.401,3.254-5.187-0.684-5.546
					c-2.549-0.234-10.977,0.46-20.244,4.732c-7.992,3.688-17.156,11.923-19.195,14.311c-2.553,2.987,0.711,6.68,2.533,5.742
					c1.822-0.938,11.432-11.757,20.35-15.533C687.438,776.166,694.024,776.438,696.239,776.036z M703.442,813.578
					c2.215-0.401,3.254-5.187-0.684-5.547c-2.549-0.233-10.977,0.461-20.244,4.732c-7.992,3.688-16.676,11.202-18.717,13.592
					c-2.551,2.985,0.713,6.68,2.535,5.739c1.822-0.938,10.951-11.033,19.867-14.812
					C694.641,813.708,701.227,813.979,703.442,813.578z M707.131,832.719c2.215-0.398,3.254-5.185-0.682-5.546
					c-2.549-0.232-10.98,0.46-20.244,4.734c-7.994,3.687-15.957,10.479-17.996,12.869c-2.553,2.985,0.711,6.68,2.533,5.739
					c1.822-0.938,10.229-10.312,19.145-14.093C698.333,832.849,704.917,833.121,707.131,832.719z M712.665,870.1
					c2.215-0.399,3.252-5.185-0.684-5.547c-2.549-0.232-10.977,0.461-20.244,4.734c-7.994,3.687-12.355,7.122-14.396,9.51
					c-2.551,2.987,0.713,6.68,2.535,5.741c1.82-0.938,6.631-6.955,15.547-10.732C703.864,870.229,710.45,870.501,712.665,870.1z
					 M709.389,851.722c2.217-0.399,3.254-5.185-0.684-5.547c-2.547-0.232-10.975,0.461-20.242,4.734
					c-7.994,3.687-14.518,9.282-16.557,11.67c-2.555,2.987,0.711,6.679,2.533,5.741c1.82-0.938,8.793-9.115,17.709-12.895
					C700.588,851.851,707.174,852.123,709.389,851.722z M682.469,897.001c-2.551,2.987,0.713,6.679,2.535,5.741
					c1.82-0.938,5.432-5.995,14.348-9.773c8.439-3.576,15.025-3.304,17.24-3.705c2.215-0.399,3.254-5.185-0.682-5.547
					c-2.549-0.232-10.98,0.461-20.244,4.734C687.672,892.138,684.51,894.613,682.469,897.001z M699.358,907.592
					c-7.994,3.688-9.002,4.542-11.043,6.93c-2.553,2.987,0.479,6.381,2.301,5.441c1.822-0.938,3.512-4.075,12.428-7.853
					c8.441-3.576,15.025-3.307,17.24-3.706c2.215-0.401,3.254-5.187-0.684-5.547C717.053,902.623,708.625,903.318,699.358,907.592z
					 M681.374,1000.846c3.537-2.678,8.639-6.12,14.699-8.056c9.643-3.104,16.139-2.872,18.672-3.257
					c2.553-0.376,3.65-4.402-0.863-4.658c-2.895-0.144-11.492,0.38-21.895,4.088c-3.768,1.339-7.15,3.033-9.963,4.715
					L681.374,1000.846z M712.038,974.254c2.502-0.342,3.627-4.242-0.773-4.529c-0.354-0.022-0.812-0.035-1.363-0.032
					c-0.555,0.003-1.193,0.021-1.916,0.06c-1.445,0.076-3.211,0.23-5.203,0.499c-3.986,0.538-8.881,1.525-13.877,3.329
					c-1.725,0.612-3.357,1.304-4.893,2.036l-0.686,6.143c2.717-1.7,5.895-3.347,9.408-4.46
					C702.051,974.312,709.553,974.604,712.038,974.254z M685.215,1017.743c2.115-1.72,4.926-4.888,15.414-8.303
					c9.924-3.259,13.434-2.633,15.998-3.062c2.582-0.421,3.639-4.586-0.951-4.793c-2.943-0.11-8.611,0.061-19.375,3.92
					c-9.283,3.329-11.594,4.835-13.77,7.147C677.864,1017.534,683.1,1019.462,685.215,1017.743z M705.362,1026.576
					c10.125-3.438,13.229-2.917,15.811-3.396c2.6-0.471,3.605-4.779-1.025-4.931c-2.975-0.074-8.273,0.248-19.311,4.297
					c-9.51,3.494-15.672,8.041-17.92,10.422c-2.834,2.956,0.844,6.247,2.936,5.261l-1.197,0.959
					C686.704,1038.164,694.661,1030.186,705.362,1026.576z M730.075,1056.138c2.598-0.566,3.492-5.173-1.178-5.206
					c-2.996-0.001-7.166,0.404-18.5,4.887c-9.758,3.87-14.945,7.048-16.908,9.875c-2.691,3.82,0.908,6.894,4.607,3.673
					c3.701-3.224,6.191-5.321,17.105-9.358C725.528,1056.16,727.483,1056.709,730.075,1056.138z M725.305,1038.887
					c2.598-0.52,3.553-4.972-1.1-5.061c-2.984-0.037-7.367,0.442-18.582,4.688c-9.656,3.667-16.318,8.2-18.617,10.648
					c-3.709,3.888,0.877,7.517,2.729,5.828c1.85-1.689,9.734-8.562,20.564-12.368
					C720.549,1038.997,722.719,1039.411,725.305,1038.887z M735.713,1074.578c2.596-0.619,3.414-5.391-1.262-5.363
					c-3.006,0.037-6.689,0.383-18.09,5.13c-9.812,4.103-12.094,5.646-14.451,8.263c-2.977,3.256,1.32,7.062,4.209,4.472
					c2.891-2.59,3.506-4.41,15.164-8.463C731.645,1074.526,733.124,1075.2,735.713,1074.578z M741.151,1093.561
					c2.602-0.663,3.344-5.605-1.357-5.528c-3.021,0.063-5.996,0.337-17.422,5.362c-6.33,2.797-11.838,6.428-15.59,9.385l1.941,7.718
					c3.762-3.301,10.449-9.329,18.672-12.748C737.764,1093.41,738.549,1094.227,741.151,1093.561z M759.393,1130.893
					c2.666-0.729,3.277-6.011-1.561-5.889c-3.123,0.091-13.465,1.799-24.9,7.38c-6.928,3.392-12.855,7.818-16.58,11.163l1.77,8.662
					c3.287-2.979,10.604-10.932,20.039-15.278C748.551,1132.117,756.725,1131.62,759.393,1130.893z M749.514,1112.193
					c2.635-0.697,3.318-5.812-1.455-5.711c-3.074,0.077-9.738,1.188-21.182,6.492c-6.025,2.807-11.303,6.381-15.031,9.377
					l1.969,7.993c3.82-3.516,10.279-9.453,18.189-12.919C742.395,1112.851,746.877,1112.891,749.514,1112.193z M725.532,1173.857
					l0.246-0.203c-0.02,0.012-0.041,0.015-0.061,0.022C725.659,1173.736,725.588,1173.804,725.532,1173.857z M745.596,1157.812
					c10.396-5.057,18.695-5.599,21.406-6.354c2.707-0.756,3.244-6.218-1.686-6.081c-3.188,0.098-13.641,1.914-25.062,7.781
					c-9.838,5.061-15.65,10.369-17.982,13.404c-2.908,3.748,1.184,8.337,3.443,7.112
					C729.014,1170.532,736.213,1162.352,745.596,1157.812z M725.532,1173.857l-1.168,0.968
					C724.655,1174.646,725.049,1174.311,725.532,1173.857z M776.799,1169.219c-0.021-0.186-0.057-0.37-0.109-0.55
					s-0.119-0.354-0.205-0.524c-0.17-0.337-0.406-0.646-0.719-0.904c-0.621-0.521-1.535-0.848-2.801-0.814
					c-3.268,0.1-13.889,1.995-25.312,8.143c-9.846,5.301-17.566,12.804-19.873,15.952c-1.447,1.964-0.965,3.946,0.164,5.269
					c0.564,0.659,1.291,1.15,2.016,1.394c0.361,0.121,0.725,0.179,1.064,0.162c0.086-0.004,0.17-0.013,0.252-0.026
					c0.084-0.013,0.164-0.029,0.242-0.054c0.158-0.046,0.309-0.112,0.449-0.198c2.23-1.42,10.127-12.162,21.146-17.725
					c10.424-5.29,18.893-5.854,21.66-6.635C776.159,1172.318,776.967,1170.709,776.799,1169.219z"/>
			</g>
		</g>
	</g>
	<g id="Shape_4_1_" enable-background="new    ">
		<g id="Shape_4">
			<g>
				<polygon fill="#C7C7C7" points="611.186,377.602 575.305,382.178 615.04,399.035 638.399,384.586 				"/>
			</g>
		</g>
	</g>
	<g id="Shape_2_1_" enable-background="new    ">
		<g id="Shape_2">
			<g>
				<path fill="#C7C7C7" d="M710.219,374.962l-23.643-17.108c0,0-15.709,16.354-35.047,29.086
					c-17.014,11.198-29.574,18.972-29.574,18.972s-20.086-4.411-42.048-15.006c-27.192-13.119-57.186-31.651-57.186-31.651
					l-22.757,15.341l-55.712,21.47l54.662,49.786l11.904,26.502c0,0,2.862,4.209,4.175,10.44c1.619,7.696,3.722,18.897,5.102,30.262
					c2.742,22.582,1.229,45.785,1.229,45.785s22.982,14.688,47.544,25.042c25.658,10.818,52.939,17.327,52.939,17.327l39.912-31.164
					c0,0,10.377-41.386,16.627-79.646c5.209-31.887,5.955-53.191,5.955-53.191l63.547-43.988L710.219,374.962z M677.51,623.642
					c-4.381,4.654-41.174,21.853-41.174,21.853l-23.352,10.832l-110.993-31.378l-3.51,14.849c0,0,15.571,36.468,18.856,49.062
					c14.673,9.446,85.041,43.862,85.041,43.862l36.38-22.062C638.762,710.657,681.889,618.988,677.51,623.642z"/>
			</g>
		</g>
	</g>
	<g id="Shape_2_copy_1_" enable-background="new    ">
		<g id="Shape_2_copy">
			<g>
				<path fill="#999998" d="M710.219,374.962l-23.643-17.108c0,0-15.709,16.354-35.047,29.086
					c-17.014,11.198-29.574,18.972-29.574,18.972s8.125,40.729,8.092,84.578c-0.041,52.938-8.242,110.719-8.242,110.719
					l39.914-31.164c0,0,10.375-41.386,16.625-79.646c5.209-31.887,5.957-53.191,5.957-53.191l63.547-43.988L710.219,374.962z
					 M677.51,623.642c-4.381,4.654-64.645,32.58-64.645,32.58l-10.522,76.104l39.694-20.638l33.375-48.837
					C675.415,662.852,679.743,621.27,677.51,623.642z"/>
			</g>
		</g>
	</g>
	<g id="Shape_5_1_" enable-background="new    ">
		<g id="Shape_5">
			<g>
				<path d="M514.285,479.19l28.55-46.301l-97.61-36.652l53.627,49.771L514.285,479.19z M540.835,681.016
					c-8.09-7.724-30.303-16.513-30.303-16.513l-12.049-24.708l15.981,49.367l46.062,22.863
					C560.528,712.024,548.925,688.739,540.835,681.016z"/>
			</g>
		</g>
	</g>
	<g id="Shape_6_1_" enable-background="new    ">
		<g id="Shape_6">
			<g>
				<path d="M539.35,689.631h-26.232c0,0-20.714,53.903-34.9,110.764c-13.354,53.532-20.234,110.223-20.234,110.223l8.421,25.397
					c0,0,19.332,3.471,27.775-15.127c2.39-6.565-0.794-16.563,18.649-76.427c7.992-24.604,20.135-67.54,26.856-98.638
					c4.575-21.158,5.445-37.073,5.445-37.073L539.35,689.631z M446.298,943.205c0,0-19.914,5.497-26.76,19.942
					c-2.362,4.981-30.181,52.05-30.181,52.05s-4.729,34.124-8.775,47.73c-18.561,62.421-26.33,125.165-26.33,125.165l28.697,18.813
					c0,0,6.438,12.514,15.102,6.052c0.796-0.593-2.802-58.251,10.562-120.812c-5.646,26.425,47.856-115.179,47.856-115.179
					l-6.88-13.04L446.298,943.205z"/>
			</g>
		</g>
	</g>
	<g id="Shape_8_1_" enable-background="new    ">
		<g id="Shape_8">
			<g>
				<path fill="#6E6663" d="M462.026,436.835c1.855,1.285,3.021,0.723,9.276,7.493c6.607,7.153,7.172,9.718,8.455,11.332
					c1.284,1.614,5.392,0.841,4.268-2.952c-1.94-6.545-14.528-18.992-19.057-20.486C460.529,430.758,460.168,435.55,462.026,436.835
					z M455.046,449.488c1.854,1.292,3.021,0.732,9.251,7.525c6.582,7.178,7.137,9.744,8.415,11.362s5.387,0.86,4.276-2.936
					c-1.917-6.554-14.46-19.044-18.981-20.556C453.571,443.405,453.193,448.196,455.046,449.488z M448.705,464.841
					c1.931,1.171,3.062,0.54,9.712,6.922c7.025,6.742,7.744,9.271,9.122,10.805c1.378,1.531,5.431,0.515,4.08-3.203
					c-2.331-6.416-15.646-18.084-20.252-19.304C446.845,458.865,446.774,463.67,448.705,464.841z M441.825,477.693
					c1.941,1.15,3.065,0.509,9.782,6.823c7.093,6.673,7.836,9.19,9.229,10.71c1.394,1.521,5.438,0.46,4.048-3.242
					c-2.395-6.395-15.825-17.927-20.444-19.1C439.905,471.736,439.882,476.542,441.825,477.693z M458.823,506.53
					c-2.444-6.374-15.963-17.805-20.593-18.939c-4.543-1.115-4.528,3.691-2.576,4.827s3.069,0.485,9.834,6.749
					c7.145,6.616,7.906,9.13,9.312,10.639C456.205,511.312,460.239,510.223,458.823,506.53z M432.488,501.405
					c-4.542-1.115-4.528,3.689-2.576,4.827c1.952,1.137,3.071,0.483,9.834,6.749c7.145,6.614,7.907,9.129,9.312,10.638
					c1.405,1.509,5.438,0.419,4.022-3.274C450.636,513.971,437.117,502.542,432.488,501.405z M418.892,533.516
					c1.993,1.062,3.086,0.369,10.082,6.372c7.391,6.341,8.247,8.824,9.708,10.279s5.451,0.212,3.896-3.425
					c-2.685-6.277-16.625-17.188-21.294-18.146C416.702,527.652,416.898,532.454,418.892,533.516z M415.047,547.486
					c1.993,1.062,3.086,0.369,10.082,6.372c7.389,6.341,8.247,8.822,9.708,10.277s5.451,0.212,3.896-3.425
					c-2.686-6.275-16.626-17.186-21.294-18.146C412.857,541.622,413.053,546.424,415.047,547.486z M410.074,562.295
					c2.014,1.022,3.094,0.307,10.208,6.168c7.515,6.192,8.422,8.657,9.912,10.083c1.488,1.425,5.454,0.104,3.827-3.502
					c-2.811-6.222-16.967-16.85-21.653-17.717C407.768,556.477,408.06,561.274,410.074,562.295z M405.569,576.34
					c2.014,1.022,3.094,0.309,10.208,6.168c7.515,6.192,8.422,8.657,9.913,10.083c1.488,1.425,5.452,0.104,3.825-3.502
					c-2.809-6.222-16.966-16.85-21.653-17.717C403.263,570.521,403.555,575.319,405.569,576.34z M400.881,592.133
					c2.073,0.896,3.106,0.115,10.569,5.526c7.883,5.716,8.94,8.121,10.516,9.451c1.575,1.331,5.45-0.233,3.604-3.731
					c-3.188-6.037-17.977-15.77-22.706-16.345C398.22,586.468,398.808,591.238,400.881,592.133z M397.486,606.371
					c2.073,0.896,3.106,0.115,10.568,5.525c7.883,5.716,8.94,8.12,10.517,9.45c1.575,1.331,5.45-0.231,3.603-3.729
					c-3.188-6.037-17.975-15.771-22.707-16.348C394.825,600.706,395.413,605.476,397.486,606.371z M394.416,623.093
					c2.074,0.896,3.105,0.115,10.569,5.526c7.883,5.716,8.939,8.12,10.516,9.451s5.45-0.234,3.603-3.731
					c-3.188-6.037-17.975-15.77-22.707-16.345C391.754,617.428,392.342,622.198,394.416,623.093z M391.726,637.331
					c2.073,0.896,3.106,0.116,10.569,5.526c7.883,5.716,8.94,8.119,10.516,9.449c1.575,1.331,5.45-0.231,3.604-3.729
					c-3.188-6.037-17.975-15.771-22.707-16.345C389.065,631.666,389.652,636.436,391.726,637.331z M388.896,653.333
					c2.072,0.896,3.105,0.115,10.568,5.526c7.883,5.716,8.94,8.121,10.517,9.449c1.574,1.33,5.449-0.232,3.603-3.729
					c-3.188-6.037-17.975-15.771-22.707-16.346C386.235,647.668,386.822,652.438,388.896,653.333z M386.206,667.571
					c2.074,0.895,3.105,0.113,10.569,5.524c7.883,5.717,8.939,8.121,10.516,9.451c1.575,1.33,5.45-0.232,3.603-3.729
					c-3.188-6.037-17.975-15.771-22.707-16.348C383.545,661.906,384.132,666.675,386.206,667.571z M384.816,682.133
					c2.073,0.896,3.105,0.115,10.568,5.526c7.883,5.716,8.94,8.12,10.517,9.451c1.575,1.331,5.449-0.234,3.603-3.731
					c-3.188-6.037-17.975-15.77-22.707-16.345C382.155,676.468,382.743,681.238,384.816,682.133z M382.126,696.371
					c2.074,0.896,3.107,0.115,10.569,5.525c7.883,5.716,8.939,8.12,10.516,9.45c1.575,1.331,5.45-0.232,3.604-3.729
					c-3.188-6.037-17.976-15.771-22.707-16.348C379.465,690.706,380.053,695.476,382.126,696.371z M424.412,521.275
					c1.993,1.062,3.086,0.369,10.082,6.372c7.389,6.341,8.247,8.822,9.708,10.277s5.451,0.212,3.896-3.424
					c-2.684-6.277-16.625-17.187-21.294-18.146C422.222,515.412,422.418,520.214,424.412,521.275z M710.524,439.581
					c7.145-5.825,8.219-5.105,10.238-6.116c2.02-1.012,2.336-5.807-2.268-4.979c-4.691,0.843-18.902,11.396-21.744,17.604
					c-1.646,3.597,2.311,4.939,3.809,3.521C702.057,448.194,702.975,445.733,710.524,439.581z M715.678,453.125
					c7.123-5.85,8.201-5.134,10.219-6.152c2.016-1.019,2.312-5.813-2.285-4.972c-4.689,0.86-18.863,11.466-21.682,17.683
					c-1.635,3.604,2.328,4.933,3.82,3.51C707.243,461.77,708.155,459.306,715.678,453.125z M719.428,468.553
					c7.48-5.385,8.512-4.601,10.588-5.487c2.076-0.89,2.682-5.655-1.963-5.107c-4.734,0.559-19.557,10.24-22.764,16.265
					c-1.859,3.491,2.01,5.069,3.588,3.744C710.458,476.642,711.526,474.241,719.428,468.553z M724.379,482.138
					c7.535-5.309,8.559-4.515,10.643-5.382c2.086-0.867,2.738-5.628-1.912-5.126c-4.738,0.511-19.656,10.043-22.926,16.036
					c-1.895,3.473,1.959,5.089,3.553,3.78C715.329,490.137,716.418,487.746,724.379,482.138z M728.379,497.501
					c7.574-5.25,8.592-4.449,10.684-5.3c2.094-0.853,2.781-5.606-1.871-5.143c-4.744,0.477-19.734,9.893-23.051,15.858
					c-1.92,3.458,1.92,5.104,3.523,3.807C719.266,505.43,720.375,503.048,728.379,497.501z M732.124,511.986
					c7.576-5.251,8.592-4.449,10.684-5.302c2.096-0.851,2.783-5.605-1.869-5.141c-4.742,0.475-19.732,9.891-23.051,15.858
					c-1.922,3.458,1.918,5.104,3.521,3.808S724.122,517.532,732.124,511.986z M727.954,548.952c1.65-1.235,2.848-3.573,11.055-8.813
					c7.771-4.96,8.756-4.121,10.877-4.892c2.123-0.771,2.992-5.498-1.676-5.208c-4.758,0.295-20.094,9.138-23.633,14.976
					C722.526,548.396,726.301,550.188,727.954,548.952z M729.795,563.323c1.65-1.235,2.85-3.573,11.057-8.813
					c7.77-4.96,8.754-4.121,10.877-4.892c2.123-0.771,2.99-5.498-1.678-5.208c-4.756,0.294-20.094,9.137-23.631,14.975
					C724.37,562.768,728.145,564.558,729.795,563.323z M732.37,578.243c1.676-1.202,2.92-3.518,11.229-8.59
					c7.867-4.806,8.836-3.944,10.977-4.673c2.137-0.729,3.1-5.438-1.572-5.241c-4.762,0.2-20.271,8.731-23.928,14.499
					C726.956,577.579,730.694,579.444,732.37,578.243z M734.856,592.781c1.676-1.202,2.92-3.518,11.229-8.59
					c7.867-4.806,8.836-3.944,10.973-4.675c2.143-0.729,3.105-5.437-1.568-5.239c-4.766,0.198-20.273,8.731-23.932,14.499
					C729.442,592.117,733.18,593.982,734.856,592.781z M736.5,607.679c1.746-1.096,3.131-3.328,11.74-7.879
					c8.145-4.309,9.061-3.392,11.24-3.987c2.18-0.595,3.43-5.233-1.246-5.326c-4.768-0.097-20.773,7.464-24.777,12.991
					C731.137,606.682,734.754,608.775,736.5,607.679z M737.864,622.253c1.746-1.096,3.131-3.328,11.738-7.88
					c8.148-4.309,9.062-3.391,11.24-3.986c2.18-0.595,3.432-5.232-1.246-5.328c-4.766-0.095-20.771,7.466-24.775,12.993
					C732.5,621.256,736.116,623.349,737.864,622.253z M738.551,639.24c1.748-1.098,3.133-3.328,11.74-7.879
					c8.148-4.311,9.062-3.393,11.24-3.986c2.18-0.595,3.432-5.235-1.244-5.328c-4.766-0.095-20.773,7.464-24.779,12.993
					C733.19,638.243,736.805,640.336,738.551,639.24z M739.215,653.715c1.746-1.096,3.131-3.328,11.738-7.879
					c8.146-4.309,9.061-3.391,11.242-3.986c2.178-0.595,3.43-5.233-1.246-5.328c-4.768-0.095-20.773,7.466-24.777,12.993
					C733.852,652.718,737.469,654.811,739.215,653.715z M761.504,652.762c-4.766-0.095-20.773,7.464-24.779,12.993
					c-2.318,3.204,1.299,5.296,3.045,4.201c1.746-1.096,3.131-3.328,11.738-7.88c8.148-4.311,9.062-3.393,11.24-3.986
					C764.928,657.495,766.18,652.855,761.504,652.762z M762.167,667.237c-4.766-0.097-20.773,7.464-24.777,12.993
					c-2.316,3.202,1.299,5.296,3.043,4.199c1.746-1.096,3.135-3.328,11.74-7.88c8.148-4.309,9.062-3.391,11.24-3.985
					S766.842,667.33,762.167,667.237z M739.762,699.043c1.746-1.096,3.133-3.328,11.738-7.879c8.148-4.309,9.062-3.393,11.242-3.986
					c2.178-0.595,3.43-5.233-1.246-5.328c-4.766-0.095-20.773,7.466-24.777,12.993C734.399,698.046,738.016,700.14,739.762,699.043z
					 M762.161,696.324c-4.768-0.097-20.773,7.464-24.777,12.993c-2.318,3.202,1.295,5.297,3.043,4.199
					c1.746-1.096,3.131-3.327,11.738-7.88c8.148-4.309,9.062-3.392,11.24-3.984C765.583,701.057,766.836,696.417,762.161,696.324z
					 M735.262,527.244c7.77-4.96,8.754-4.12,10.877-4.894c2.123-0.771,2.992-5.497-1.676-5.208
					c-4.758,0.297-20.094,9.139-23.633,14.977c-2.051,3.383,1.725,5.173,3.375,3.938
					C725.858,534.822,727.055,532.484,735.262,527.244z M524.151,727.091c-8.88-5.149-17.221-6.655-19.779-6.667
					c-3.953-0.018-3.318,4.851-1.146,5.462c2.175,0.613,8.761,0.978,16.872,5.354c8.57,4.623,14.832,13.44,16.569,14.553
					c1.737,1.109,5.299-2.255,3.005-5.479C537.841,737.738,531.809,731.534,524.151,727.091z M528.951,709.091
					c-8.878-5.149-17.219-6.655-19.778-6.667c-3.953-0.018-3.319,4.851-1.145,5.462c2.174,0.613,8.759,0.978,16.872,5.354
					c8.567,4.623,14.83,13.44,16.566,14.553c1.737,1.112,5.299-2.255,3.006-5.479C542.641,719.738,536.609,713.534,528.951,709.091z
					 M518.631,745.812c-8.879-5.151-17.219-6.655-19.779-6.669c-3.951-0.019-3.316,4.851-1.145,5.462
					c2.174,0.612,8.759,0.977,16.872,5.354c8.57,4.623,14.832,13.442,16.569,14.553c1.735,1.111,5.299-2.255,3.005-5.478
					C532.321,756.458,526.289,750.254,518.631,745.812z M513.351,764.531c-8.878-5.151-17.219-6.654-19.776-6.666
					c-3.953-0.021-3.319,4.849-1.146,5.462c2.174,0.612,8.761,0.976,16.872,5.352c8.57,4.623,14.831,13.442,16.568,14.555
					c1.737,1.109,5.299-2.257,3.006-5.479C527.041,775.178,521.009,768.974,513.351,764.531z M503.511,799.571
					c-8.878-5.151-17.219-6.654-19.776-6.666c-3.953-0.021-3.319,4.849-1.146,5.462c2.174,0.61,8.759,0.976,16.872,5.352
					c8.569,4.623,14.831,13.442,16.568,14.553c1.735,1.111,5.299-2.255,3.005-5.478
					C517.201,810.218,511.169,804.014,503.511,799.571z M508.311,781.571c-8.878-5.151-17.219-6.654-19.776-6.666
					c-3.953-0.021-3.318,4.849-1.146,5.462c2.175,0.61,8.761,0.976,16.872,5.352c8.57,4.623,14.832,13.442,16.568,14.553
					c1.738,1.11,5.299-2.255,3.006-5.478C522.001,792.218,515.969,786.014,508.311,781.571z M497.991,818.291
					c-8.878-5.15-17.22-6.654-19.778-6.666c-3.953-0.019-3.318,4.849-1.145,5.462c2.173,0.613,8.759,0.976,16.872,5.354
					c8.567,4.621,14.831,13.439,16.566,14.552c1.737,1.11,5.299-2.255,3.005-5.479C511.681,828.938,505.649,822.734,497.991,818.291
					z M492.711,837.012c-8.879-5.149-16.5-6.896-19.059-6.905c-3.953-0.02-3.318,4.85-1.146,5.462
					c2.172,0.611,8.039,1.216,16.151,5.593c8.569,4.623,14.832,13.44,16.566,14.553c1.738,1.11,5.301-2.255,3.008-5.478
					C506.401,847.658,500.369,841.454,492.711,837.012z M484.071,873.731c-8.879-5.151-14.58-6.415-17.141-6.429
					c-3.952-0.018-3.316,4.851-1.145,5.462c2.174,0.613,6.12,0.736,14.231,5.112c8.568,4.623,14.83,13.442,16.567,14.553
					c1.737,1.111,5.299-2.255,3.005-5.478C497.761,884.378,491.729,878.174,484.071,873.731z M488.871,855.731
					c-8.878-5.151-16.259-6.655-18.818-6.667c-3.953-0.02-3.316,4.85-1.145,5.462c2.174,0.611,7.8,0.977,15.912,5.353
					c8.568,4.623,14.831,13.442,16.566,14.553c1.737,1.111,5.3-2.255,3.007-5.478C502.561,866.378,496.529,860.174,488.871,855.731z
					 M478.551,892.451c-8.879-5.15-12.659-5.937-15.219-5.946c-3.953-0.019-3.318,4.849-1.145,5.462
					c2.173,0.613,4.197,0.256,12.312,4.632c8.569,4.623,14.831,13.442,16.568,14.555c1.735,1.109,5.299-2.256,3.005-5.479
					C492.241,903.099,486.209,896.895,478.551,892.451z M473.271,911.171c-8.88-5.148-10.5-4.975-13.06-4.986
					c-3.953-0.018-3.319,4.851-1.145,5.462c2.174,0.613,2.04-0.702,10.15,3.675c8.57,4.623,14.832,13.439,16.568,14.552
					c1.738,1.11,5.299-2.255,3.006-5.479C486.961,921.818,480.929,915.614,473.271,911.171z M533.031,690.851
					c-8.878-5.149-17.219-6.652-19.778-6.666c-3.953-0.019-3.319,4.851-1.145,5.462c2.174,0.613,8.759,0.978,16.872,5.354
					c8.567,4.623,14.829,13.442,16.566,14.553c1.737,1.111,5.299-2.255,3.005-5.478
					C546.721,701.498,540.689,695.294,533.031,690.851z M614.2,630.499c-2.717,0.518-3.814,1.893-14.05,1.762
					c-10.814-0.139-12.608-1.649-14.81-1.85c-2.201-0.199-6.601,3.719-3.616,5.719c5.152,3.452,25.232,2.812,31.125,0.292
					C618.631,633.95,616.917,629.98,614.2,630.499z M611.499,622.254c5.783-2.472,4.07-6.439,1.352-5.923
					c-2.717,0.518-3.811,1.894-14.05,1.762c-10.812-0.139-12.606-1.649-14.808-1.85c-2.201-0.199-6.603,3.719-3.616,5.719
					C585.526,625.413,605.606,624.773,611.499,622.254z M599.102,603.384c-10.812-0.139-12.606-1.648-14.808-1.85
					c-2.201-0.199-6.601,3.719-3.616,5.719c5.152,3.452,25.231,2.812,31.125,0.292c5.783-2.472,4.068-6.441,1.352-5.923
					C610.438,602.14,609.338,603.516,599.102,603.384z M574.814,357.506c2.375-0.218,4.963-1.668,16.793-1.934
					c11.301-0.253,13.875,2.081,16.913,2.557c3.037,0.478,4.832-3.978-1.715-6.349c-6.676-2.418-27.916-3.123-33.293,0.345
					C570.423,354.116,572.445,357.723,574.814,357.506z M607.364,371.692c2.988,0.477,4.924-3.727-1.521-6.057
					c-6.57-2.376-27.561-2.975-32.855,0.358c-3.039,1.914-0.781,5.227,1.551,5.027c2.337-0.198,3.923-1.461,15.565-1.659
					C601.225,369.172,604.375,371.216,607.364,371.692z M423.316,996.566c-8.136-3.875-15.69-5.258-19.774-5.551l-3.177,5.653
					c2.399,0.455,9.375,0.254,18.565,4.245c9.708,4.229,17.111,12.758,19.104,13.767c2.001,1.021,5.857-2.436,3.153-5.533
					C439.032,1006.677,432.003,1000.701,423.316,996.566z M427.918,978.319c-5.185-2.585-10.128-4.11-14.069-4.956l-3.031,5.444
					c3.366,0.526,7.8,1.534,12.819,3.812c9.615,4.372,19.409,14.968,21.389,16.009l0.479,0.24c1.987,1.053,5.275-2.558,2.569-5.707
					C445.917,990.65,436.518,982.602,427.918,978.319z M417.7,1015.59c-10.15-4.657-19.377-5.552-22.182-5.35
					c-4.333,0.303-3.561,5.146-1.167,5.58c2.396,0.435,9.65,0.283,18.894,4.161c9.762,4.104,17.183,12.519,19.186,13.501
					c2.015,0.991,5.945-2.523,3.236-5.582C433.509,1025.461,426.447,1019.604,417.7,1015.59z M390.283,1029.712
					c-4.303,0.335-3.522,5.16-1.152,5.574c2.373,0.414,9.58,0.207,18.831,3.99c9.771,4.004,17.207,12.322,19.215,13.286l2.818-6.109
					c-2.595-2.639-9.335-7.932-17.552-11.6C402.26,1030.311,393.062,1029.488,390.283,1029.712z M380.207,1065.469
					c-4.148,0.402-3.333,5.198-1.051,5.573c2.285,0.375,9.247,0.057,18.382,3.681c6.821,2.713,12.539,7.598,16.009,10.557
					l2.788-6.442c-3.386-2.666-8.524-6.054-14.393-8.591C391.83,1065.879,382.881,1065.202,380.207,1065.469z M384.898,1046.998
					c-4.239,0.368-3.444,5.179-1.112,5.573c2.335,0.395,9.438,0.132,18.651,3.835c8.479,3.415,15.224,10.121,18.144,12.414
					c0.032-0.013,2.754-6.402,2.797-6.438c-3.115-2.796-9.229-7.249-16.478-10.427
					C396.732,1047.502,387.632,1046.753,384.898,1046.998z M375.049,1084.747c-4.02,0.438-3.183,5.22-0.969,5.573
					c2.218,0.354,8.974-0.026,17.976,3.517c5.781,2.279,10.791,6.175,14.275,9.084l1.549-7.15
					c-3.143-2.188-7.136-4.562-11.528-6.441C386.357,1085.052,377.637,1084.457,375.049,1084.747z M370.477,1104.01
					c-3.882,0.471-3.025,5.234-0.882,5.571c2.148,0.335,8.688-0.1,17.53,3.368c6.75,2.65,12.485,7.596,15.884,10.475l1.281-7.506
					c-3.304-2.452-7.892-5.328-13.004-7.508C381.439,1104.22,372.975,1103.698,370.477,1104.01z M364.047,1141.536
					c-3.689,0.507-2.814,5.233-0.756,5.551c2.065,0.316,8.31-0.179,16.899,3.173c9.071,3.543,16.434,11.493,18.342,12.373
					c0.211,0.099,0.441,0.141,0.683,0.132l0.537-7.403c-3.076-2.682-8.938-6.821-15.668-9.678
					C374.504,1141.631,366.422,1141.204,364.047,1141.536z M367.625,1123.084c-3.785,0.49-2.912,5.237-0.812,5.562
					c2.105,0.323,8.494-0.145,17.217,3.263c7.382,2.887,13.587,8.599,16.755,11.211l0.936-7.771
					c-3.317-2.544-8.193-5.682-13.657-8.001C378.337,1123.232,370.059,1122.761,367.625,1123.084z M379.743,1164.808
					c-9.455-3.997-17.395-4.393-19.736-4.058c-3.632,0.514-2.782,5.218-0.739,5.531c2.05,0.312,8.215-0.196,16.706,3.108
					c8.971,3.497,16.334,11.4,18.227,12.271c1.9,0.875,5.349-2.854,2.682-5.736C394.759,1173.625,387.87,1168.252,379.743,1164.808z
					 M375.936,1183.877c-9.428-3.958-17.393-4.351-19.768-4.021c-1.845,0.252-2.55,1.553-2.553,2.823
					c0,0.08,0.002,0.159,0.008,0.238s0.014,0.158,0.023,0.236c0.021,0.154,0.055,0.311,0.096,0.459
					c0.083,0.299,0.206,0.579,0.359,0.823c0.311,0.491,0.75,0.846,1.272,0.924c2.089,0.315,8.336-0.185,16.847,3.098
					c8.991,3.468,16.409,11.332,18.301,12.197c0.238,0.106,0.499,0.146,0.767,0.121c0.066-0.009,0.134-0.019,0.202-0.03
					c0.066-0.016,0.136-0.03,0.204-0.052c0.136-0.041,0.271-0.099,0.405-0.166c0.538-0.272,1.047-0.748,1.415-1.341
					c0.734-1.185,0.897-2.835-0.446-4.271C390.932,1192.627,384.046,1187.289,375.936,1183.877z M449.963,975.032
					c-0.038-0.192-0.095-0.39-0.172-0.585c-0.155-0.396-0.395-0.799-0.732-1.203c-2.159-2.565-9.137-8.898-17.628-13.367
					c-2.558-1.348-5.052-2.423-7.392-3.271l-3.634,4.85c2.108,0.632,4.422,1.482,6.878,2.657
					c9.49,4.551,16.884,13.421,18.847,14.506c0.983,0.556,2.397,0.01,3.221-1.067c0.413-0.539,0.68-1.211,0.672-1.95
					c0-0.093-0.008-0.187-0.018-0.278C449.997,975.224,449.982,975.128,449.963,975.032z"/>
			</g>
		</g>
	</g>
	<g id="Shape_10_1_" enable-background="new    ">
		<g id="Shape_10">
			<g>
				<path fill="#282829" d="M477.412,914.616c-0.394-0.188-45.147-23.023-46.814,41.458c-0.596,23.07,5.365,27.678,15.202,25.721
					c5.042-1.004,21.391-8.743,30.604-21.286c8.76-11.924,11.723-27.839,11.723-27.839S490.807,921.831,477.412,914.616z
					 M731.844,921.583c0,0-2.166-11.047-14.219-12.804c-0.344-0.029-40.148-4.729-17.285,55.727
					c8.182,21.629,14.066,23.707,20.215,18.264c3.152-2.789,11.697-15.994,13.469-31.031
					C735.706,937.442,731.844,921.583,731.844,921.583z"/>
			</g>
		</g>
	</g>
	<g id="Shape_11_1_" enable-background="new    ">
		<g id="Shape_11">
			<g>
				<path fill="#ABACAD" d="M472.823,923.883c-0.281-0.133-29.868-14.969-30.971,33.521c-0.396,17.354,3.55,20.51,10.058,18.538
					c3.336-1.013,14.149-7.656,20.247-17.546c5.795-9.401,7.755-21.505,7.755-21.505S481.686,928.615,472.823,923.883z
					 M732.106,925.142c0,0-1.52-8.755-11.002-10.347c-0.365-0.043-31.564-4.345-14.594,43.67
					c6.082,17.205,10.689,18.946,15.635,14.759c2.535-2.146,9.506-12.42,11.16-24.253
					C734.877,937.722,732.106,925.142,732.106,925.142z"/>
			</g>
		</g>
	</g>
	<g id="Shape_12_1_" enable-background="new    ">
		<g id="Shape_12">
			<g>
				<path fill="#C7C7C7" d="M401.986,1210.121c-4.473-8.198-13.953-9.359-13.953-9.359s3.767-25.67-0.953-28.649
					c-4.721-2.981-22.36-2.235-30.809,11.18c-8.447,13.415-23.603,42.979-26.584,57.389c-2.98,14.408,6.709,16.895,6.709,16.895
					l32.05,6.211c0,0,25.269,0.328,41.956-3.438c9.405-2.123,15.067-7.918,14.44-9.979
					C423.104,1244.653,406.458,1218.319,401.986,1210.121z M860.036,1241.314c-6.24-4.039-53.814-39.324-64.318-47.203
					s-22.219-30.638-32.197-20.918c-4.654,3.389-7.771,10.817-7.771,10.817l-3.521,23.614c0,0-17.609,10.812-17.715,11.232
					c-0.264,1.051-4.602,13.758-1.236,21.687c5.68,2.544,32.545,9.396,54.006,12.415c21.459,3.021,38.592,5.396,55.988,6.708
					C857.901,1260.773,896.45,1264.891,860.036,1241.314z"/>
			</g>
		</g>
	</g>
	<g id="Shape_12_copy_1_" enable-background="new    ">
		<g id="Shape_12_copy">
			<g>
				<path fill="#999999" d="M401.986,1210.121c-4.473-8.198-10.896-13.643-10.896-13.643s0.708-21.389-4.012-24.368
					c-0.743-0.471-1.806-0.848-3.103-1.098c-5.959,12.282-15.132,29.582-18.055,45.081c-5.576,29.572,2.952,44.563,21.06,47.492
					c8.701-0.178,12.233-0.719,23.42-3.242c9.405-2.123,15.067-7.919,14.44-9.979
					C423.104,1244.653,406.458,1218.319,401.986,1210.121z M860.036,1241.314c-6.24-4.039-53.814-39.324-64.318-47.203
					c-8.381-6.286-17.533-22.044-25.959-23.224c1.334,8.309,13.779,18.61,22.828,27.619c24.102,23.989,48.844,41.562,74.908,50.188
					c4.002,2.278,7.408,6.836,7.734,7.052C875.004,1252.824,870.788,1248.276,860.036,1241.314z"/>
			</g>
		</g>
	</g>
	<g id="Shape_15_1_" enable-background="new    ">
		<g id="Shape_15">
			<g>
				<path fill="#C7C7C7" d="M773.319,740.605l-6.66-26.64l-2.018-14.933c0,0-5.801,2.023-13.137,1.827
					c-7.594-0.205-16.73-2.636-16.73-2.636l-4.439,13.117l0.404,6.458l-10.494,23.207l-5.045,3.433l-3.23,11.502l-1.812,4.236
					l-0.055,30.545l7.471,6.487l2.611-15.954l7.73-14.822l1.211,6.457l3.229,2.624v25.227l1.211,2.018l-0.605,15.942l9.689,0.604
					l2.621-12.713l0.605-2.422l5.449-22.602l12.713-0.403l1.615,15.336l-1.211,19.979l4.035,3.834l10.695-15.941l2.623-21.997
					L773.319,740.605z M435.379,725.226c-0.777-1.034-0.874-3.125-0.874-3.125l-13.889-10.344l-7.771-16.577
					c0,0-5.226,2.834-12.884,2.075c-8.004-0.793-18.455-5.183-18.455-5.183l-0.776,3.626l-9.324,25.124l-4.662,29.269l2.331,5.698
					l0.259,3.107l20.979,12.949l17.353,6.993l8.659-1.671l4.032,7.887c0,0,9.842-6.216,12.69-6.732
					c2.851-0.52,6.216-2.331,6.216-2.331l4.146-26.679l2.331-3.107l-0.259-11.655C445.48,734.55,436.157,726.262,435.379,725.226z"
					/>
			</g>
		</g>
	</g>
	<g id="Shape_15_copy_1_" enable-background="new    ">
		<g id="Shape_15_copy">
			<g>
				<path fill="#999998" d="M773.319,740.605l-6.66-26.64l-2.018-14.933l-7.053,1.518l20.861,71.479l-14.355,1.117
					c0,0-24.836-0.603-32.721-0.792c-0.928-0.022-1.621-0.039-2.012-0.05c0.723-12.289,1.354-54.223,1.354-54.223l-10.346,22.799
					l-5.363,3.449l-4.979,15.327l-0.191,31.038l8.016,6.845l2.139-16.425l7.854-14.369c0,0,1.242,7.88,1.492,5.87l3.018,2.896
					v25.227l1.211,2.018l-0.605,15.942l9.688,0.604l2.623-12.713l0.605-2.422l5.449-22.602l12.713-0.403l1.615,15.336l-1.211,19.979
					l4.033,3.834l10.695-15.94l2.623-21.997L773.319,740.605z M436.66,726.393c-0.544-0.588-2.412-4.884-2.412-4.884
					s-6.278-5.701-7.346-7.1c-6.754-8.843-13.826-18.615-13.826-18.615s-3.614,0.217-3.978,0.924
					c-0.278,0.545,20.464,37.13,20.199,37.697c-5.46,11.678-7.898,27.48-7.898,27.48l-52.323-6.105l0.259,3.107l20.979,12.949
					l17.353,6.993l7.818,1.275l4.873,4.938c0,0,9.842-6.216,12.69-6.732c2.851-0.52,6.216-2.331,6.216-2.331l4.146-26.678
					l2.331-3.108l-0.259-11.655C445.48,734.55,437.438,727.429,436.66,726.393z"/>
			</g>
		</g>
	</g>
	<g id="Shape_15_copy_2_1_" enable-background="new    ">
		<g id="Shape_15_copy_2">
			<g>
				<path fill="#464647" d="M733.563,802.759l-1.326,20.982l9.688,0.604l3.344-17.753l0.605-2.422l0.484-2.32l-14.006-1.108
					L733.563,802.759z M369.075,755.789l0.259,3.107l20.979,12.949l17.353,6.993l7.818,1.275l4.873,4.938
					c0,0,9.842-6.216,12.69-6.732c2.85-0.52,6.216-2.331,6.216-2.331l-17.864-14.099L369.075,755.789z M709.797,790.477l8.057,7.065
					l2.137-16.425l7.854-14.369l-11.615,10.139L709.797,790.477z M765.245,803.607l-2.775,21.301l7.066,0.707l9.686-21.364
					L765.245,803.607z"/>
			</g>
		</g>
	</g>
	<g id="Shape_18_1_" enable-background="new    ">
		<g id="Shape_18">
			<g>
				<ellipse fill="#1B1C18" cx="624.946" cy="462.791" rx="40.771" ry="40.539"/>
			</g>
		</g>
	</g>
	<g id="Shape_18_copy_1_" enable-background="new    ">
		<g id="Shape_18_copy">
			<g>
				<ellipse fill="#565656" cx="625.315" cy="462.954" rx="40.045" ry="39.817"/>
			</g>
		</g>
	</g>
	<g id="Shape_18_copy_2_1_" enable-background="new    ">
		<g id="Shape_18_copy_2">
			<g>
				<ellipse cx="628.477" cy="460.578" rx="33.557" ry="33.364"/>
			</g>
		</g>
	</g>
	<g id="Shape_18_copy_3_1_" enable-background="new    ">
		<g id="Shape_18_copy_3">
			<g>
				<ellipse fill="#232323" cx="623.831" cy="465.199" rx="23.24" ry="23.108"/>
			</g>
		</g>
	</g>
	<g id="Shape_14_copy_1_" enable-background="new    ">
		<g id="Shape_14_copy">
			<g>
				<path fill="#FFFFFF" d="M574.958,222.884c-8.925,0-16.16,9.946-16.16,22.216s7.235,22.215,16.16,22.215
					s16.16-9.946,16.16-22.215S583.881,222.884,574.958,222.884z"/>
			</g>
		</g>
	</g>
</g>
<g id="Layer_2" display="none">
	<g id="wP1FLI.tif" display="inline">
		
			<image overflow="visible" enable-background="new    " width="692" height="692" id="Layer_0_1_" xlink:href="8E64C3CCE36F05B7.png"  transform="matrix(0.24 0 0 0.24 -7977.5396 -7854.0391)">
		</image>
	</g>
</g>
<g id="Layer_3">
	<g>
		<path fill="#E91E63" d="M543.434,230.487c0,0.243,0.004,0.488,0.005,0.731c0.217-0.031,0.436-0.058,0.663-0.065L543.434,230.487z"
			/>
		<path fill="#E91E63" d="M708.002,324.261c-15.332-9.778-20.613-36.781-21.223-53.02c-0.783-20.836,1.598-39.655-6.979-58.972
			c-2.156-4.859-4.732-9.841-7.945-14.266c-2.34-3.219-5.014-6.145-8.105-8.515c-6.662-5.107-14.316-6.308-18.92-13.995
			c-1.867-3.12-2.793-7.277-3.979-10.517c-8.932,1.563-17.961-1.391-27.035-4.09c-6.645-1.976-13.313-3.815-19.986-3.646
			c-14.801,0.375-27.816,8.836-36.354,20.751c-3.271,4.568-4.459,9.369-6.234,14.394c-3.226,2.587-6.351,5.372-9.037,8.42
			c-0.408,0.154-0.729,0.35-0.928,0.594c-5.795,7.12-9.647,15.873-11.576,24.922c-2.832,9.887-3.96,20.275-3.106,30.441
			c-0.213,4.362-0.125,8.724,0.37,13.064c-0.077,1.113-0.145,2.224-0.2,3.326c-0.573,11.596,2.499,23.002-1.816,34
			c-5.173,13.185-15.998,21.361-30.032,19.482c-14.401-1.929-24.776-7.175-29.481-19.579c-0.011,9.498-2.674,22.779,5.257,29.212
			c7.628,9.415,18.128,13.94,29.491,16.037c8.95,3.118,18.467,5.002,27.987,5.738c0.076,0.183,0.264,0.375,0.612,0.573
			c3.42,1.953,6.92,2.983,10.771,3.045c0.135,0.029,0.27,0.047,0.403,0.073c0.44,0.092,0.881,0.172,1.325,0.241
			c0.095,0.014,0.188,0.028,0.284,0.041c1.301,0.189,2.611,0.284,3.931,0.276c2.208,0.02,4.418-0.167,6.618-0.465
			c0.217-0.005,0.435,0.004,0.65-0.007c10.833-0.532,19.556-10.041,8.687-18.019c-5.473-4.018-13.555-12.245-20.77-12.068
			c2.843-6.432,0.766-19.016-0.583-25.913c-0.651-3.336-5.013-7.042-1.806-9.651c3.177-2.585,3.93-4.899,4.521-6.15
			c0.881-1.868,0.419-3.943,0.618-6.198c1.53-17.221,0.045-35.283,0.005-52.602c-0.07,0.01-0.14,0.02-0.208,0.033
			c3.134-13.841,15.278-27.769,28.771-30.788c6.807-1.523,16.845-0.847,22.777,1.781c6.297,2.789,9.522,11.38,16.743,10.998
			c17.928,24.046,21.205,57.902,18.109,87.817c-3.043,29.393-18.188,63.432,13.146,82.986c15.738,9.821,45.135,4.831,59.805-4.53
			c26.059-16.629,41.686-45.424,49.242-73.969C747.758,319.747,720.297,332.103,708.002,324.261z"/>
	</g>
	<path fill="#C2185B" d="M711,315.74c-19.619-10.874-16.434-39.1-19.91-58.332c-0.508-2.804-1.088-5.519-1.727-8.165
		c-1.289-14.675-2.477-29.424-8.996-42.9c-7.094-14.659-19.369-26.086-27.617-40.045c-0.871-1.475-2.57-2.543-4.316-2.477
		c-7.562,0.287-15.111-0.006-22.668-0.333c-0.938-0.041-1.734,0.142-2.398,0.475c-10.039-3.033-20.569-9.099-29.362-6.918
		c-6.003-0.283-12.04,1.348-17.059,5.357c-1.59,1.271,4.547,1.99,4.82,1.997c2.684,0.071,5.314,0.551,7.905,1.288
		c-0.35,0.259-0.458,0.557-0.06,0.888c2.24,1.864,4.569,3.671,6.938,5.457c0.011,0.068,0.029,0.139,0.062,0.21
		c4.908,11.015,15.688,15.136,25.969,19.902c18.625,20.764,25.154,60.406,27.518,83.018c3.475,33.253-2.705,101.167,49.666,97.327
		c26.621-1.952,41.287-32.477,50.4-54.824c2.627-6.444,3.791-14.33,5.672-21.174C750.79,314.155,728.413,325.391,711,315.74z"/>
</g>
</svg>
